<svg xmlns="http://www.w3.org/2000/svg" xmlns:xlink="http://www.w3.org/1999/xlink" width="1080" zoomAndPan="magnify" viewBox="0 0 810 809.999993" height="1080" preserveAspectRatio="xMidYMid meet" version="1.0"><defs><clipPath id="ae34c948ca"><path d="M 39.515625 91.597656 L 770.765625 91.597656 L 770.765625 718.597656 L 39.515625 718.597656 Z M 39.515625 91.597656 " clip-rule="nonzero"/></clipPath></defs><g clip-path="url(#ae34c948ca)"><path fill="#b10f2e" d="M 662.054688 176.835938 C 593.242188 122.125 502 91.996094 405.140625 91.996094 C 308.28125 91.996094 217.039062 122.125 148.226562 176.835938 C 78.136719 232.558594 39.535156 307.035156 39.535156 386.542969 C 39.535156 453.414062 67.621094 518.046875 118.941406 570.011719 L 53.386719 690.183594 C 49.609375 697.109375 50.519531 705.648438 55.667969 711.621094 C 59.339844 715.878906 64.613281 718.195312 70.019531 718.195312 C 72.207031 718.195312 74.410156 717.820312 76.539062 717.039062 L 250.105469 653.394531 C 298.746094 671.757812 350.859375 681.085938 405.140625 681.085938 C 502 681.085938 593.242188 650.957031 662.058594 596.25 C 732.148438 540.523438 770.75 466.050781 770.75 386.542969 C 770.746094 307.035156 732.144531 232.558594 662.054688 176.835938 Z M 405.140625 643.203125 C 353.121094 643.203125 303.363281 633.902344 257.253906 615.558594 C 257.136719 615.511719 257.015625 615.480469 256.898438 615.4375 C 256.585938 615.320312 256.269531 615.21875 255.953125 615.117188 C 255.667969 615.027344 255.382812 614.9375 255.097656 614.859375 C 254.792969 614.777344 254.488281 614.714844 254.179688 614.648438 C 253.875 614.585938 253.570312 614.519531 253.265625 614.46875 C 252.96875 614.421875 252.671875 614.390625 252.378906 614.355469 C 252.058594 614.316406 251.742188 614.28125 251.421875 614.261719 C 251.128906 614.242188 250.832031 614.238281 250.539062 614.234375 C 250.214844 614.230469 249.894531 614.222656 249.574219 614.234375 C 249.28125 614.246094 248.984375 614.277344 248.691406 614.296875 C 248.371094 614.324219 248.046875 614.351562 247.726562 614.394531 C 247.441406 614.433594 247.15625 614.488281 246.871094 614.539062 C 246.539062 614.597656 246.210938 614.660156 245.886719 614.738281 C 245.613281 614.800781 245.34375 614.878906 245.078125 614.957031 C 244.738281 615.050781 244.402344 615.152344 244.070312 615.265625 C 243.957031 615.304688 243.84375 615.332031 243.730469 615.375 L 110.75 664.136719 L 159.105469 575.492188 C 159.175781 575.367188 159.226562 575.238281 159.289062 575.113281 C 159.472656 574.765625 159.640625 574.417969 159.796875 574.066406 C 159.902344 573.832031 159.996094 573.59375 160.09375 573.355469 C 160.222656 573.023438 160.34375 572.691406 160.453125 572.355469 C 160.546875 572.078125 160.628906 571.800781 160.707031 571.523438 C 160.792969 571.226562 160.863281 570.929688 160.933594 570.625 C 161.007812 570.308594 161.074219 569.988281 161.128906 569.664062 C 161.175781 569.398438 161.214844 569.128906 161.25 568.859375 C 161.292969 568.515625 161.332031 568.167969 161.359375 567.824219 C 161.375 567.566406 161.386719 567.308594 161.398438 567.046875 C 161.410156 566.703125 161.414062 566.355469 161.40625 566.011719 C 161.398438 565.738281 161.386719 565.46875 161.367188 565.199219 C 161.347656 564.875 161.320312 564.550781 161.28125 564.230469 C 161.246094 563.933594 161.203125 563.636719 161.15625 563.339844 C 161.109375 563.050781 161.054688 562.761719 160.992188 562.476562 C 160.925781 562.152344 160.847656 561.832031 160.761719 561.515625 C 160.691406 561.253906 160.621094 561 160.542969 560.746094 C 160.4375 560.414062 160.320312 560.082031 160.195312 559.757812 C 160.105469 559.519531 160.015625 559.28125 159.914062 559.046875 C 159.78125 558.722656 159.632812 558.40625 159.476562 558.089844 C 159.359375 557.847656 159.238281 557.609375 159.109375 557.371094 C 158.953125 557.085938 158.789062 556.800781 158.613281 556.519531 C 158.457031 556.257812 158.289062 556.003906 158.113281 555.746094 C 157.953125 555.507812 157.78125 555.273438 157.609375 555.042969 C 157.390625 554.757812 157.167969 554.476562 156.9375 554.203125 C 156.773438 554.011719 156.613281 553.824219 156.445312 553.636719 C 156.175781 553.347656 155.894531 553.0625 155.609375 552.789062 C 155.511719 552.695312 155.425781 552.589844 155.324219 552.5 C 105.089844 506.15625 77.425781 447.21875 77.425781 386.539062 C 77.425781 245.019531 224.4375 129.882812 405.140625 129.882812 C 585.847656 129.882812 732.859375 245.019531 732.859375 386.539062 C 732.859375 528.066406 585.84375 643.203125 405.140625 643.203125 Z M 405.140625 643.203125 " fill-opacity="1" fill-rule="nonzero"/></g></svg>