<svg xmlns="http://www.w3.org/2000/svg" xmlns:xlink="http://www.w3.org/1999/xlink" width="1920" zoomAndPan="magnify" viewBox="0 0 1440 809.999993" height="1080" preserveAspectRatio="xMidYMid meet" version="1.0"><defs><g/><clipPath id="4c85475e6c"><path d="M 631.625 283.191406 L 953.660156 283.191406 L 953.660156 559.527344 L 631.625 559.527344 Z M 631.625 283.191406 " clip-rule="nonzero"/></clipPath></defs><g fill="#280000" fill-opacity="1"><g transform="translate(-8.934525, 558.24003)"><g><path d="M 18.464844 -275.140625 L 18.464844 0 L 70.910156 0 L 70.910156 -13.296875 C 79.035156 -2.585938 99.347656 4.0625 116.335938 4.0625 C 167.300781 4.0625 207.925781 -39.886719 207.925781 -93.066406 C 207.925781 -146.988281 166.191406 -190.566406 116.335938 -190.566406 C 99.714844 -190.566406 79.035156 -182.441406 70.910156 -173.578125 L 70.910156 -275.140625 Z M 111.164062 -48.011719 C 86.789062 -48.011719 68.691406 -66.476562 68.691406 -93.066406 C 68.691406 -119.289062 86.789062 -138.125 111.164062 -138.125 C 135.171875 -138.125 154.742188 -119.289062 154.742188 -93.066406 C 154.742188 -66.476562 135.171875 -48.011719 111.164062 -48.011719 Z M 111.164062 -48.011719 "/></g></g></g><g fill="#280000" fill-opacity="1"><g transform="translate(209.701169, 558.24003)"><g><path d="M 152.160156 -66.847656 C 143.664062 -53.550781 127.785156 -48.011719 111.902344 -48.011719 C 106.363281 -48.011719 101.191406 -48.378906 96.390625 -50.226562 L 200.539062 -124.828125 C 189.089844 -159.546875 153.636719 -190.566406 107.472656 -190.566406 C 53.921875 -190.566406 10.710938 -146.988281 10.710938 -93.066406 C 10.710938 -39.886719 55.765625 4.0625 111.902344 4.0625 C 145.140625 4.0625 178.011719 -11.078125 193.890625 -34.714844 Z M 63.890625 -93.066406 C 63.890625 -119.289062 83.464844 -138.125 107.472656 -138.125 C 117.441406 -138.125 125.9375 -134.800781 133.324219 -129.261719 L 65.371094 -80.878906 C 64.261719 -84.574219 63.890625 -88.636719 63.890625 -93.066406 Z M 63.890625 -93.066406 "/></g></g></g><g fill="#b10f2e" fill-opacity="1"><g transform="translate(403.740455, 557.819889)"><g><path d="M 122.21875 0 C 172.808594 0 219.703125 -32.492188 219.703125 -88.617188 C 219.703125 -115.203125 207.148438 -138.835938 182.40625 -155.820312 C 195.699219 -168.007812 201.976562 -183.144531 201.976562 -202.347656 C 201.976562 -253.671875 165.421875 -275.089844 114.464844 -275.089844 L 26.214844 -275.089844 L 26.214844 0 Z M 83.449219 -51.695312 L 83.449219 -122.589844 L 124.066406 -122.589844 C 147.699219 -122.589844 160.992188 -108.925781 160.992188 -86.773438 C 160.992188 -65.355469 147.699219 -51.695312 124.066406 -51.695312 Z M 83.449219 -172.4375 L 83.449219 -223.394531 L 112.25 -223.394531 C 128.128906 -223.394531 143.265625 -218.960938 143.265625 -197.914062 C 143.265625 -186.46875 139.945312 -172.4375 112.25 -172.4375 Z M 83.449219 -172.4375 "/></g></g></g><g fill="#b10f2e" fill-opacity="1"><g transform="translate(638.202066, 557.819889)"><g/></g></g><g fill="#b10f2e" fill-opacity="1"><g transform="translate(793.654235, 557.819889)"><g/></g></g><g fill="#b10f2e" fill-opacity="1"><g transform="translate(949.097427, 557.819889)"><g><path d="M 26.214844 -275.089844 L 26.214844 0 L 194.222656 0 L 194.222656 -51.695312 L 83.449219 -51.695312 L 83.449219 -275.089844 Z M 26.214844 -275.089844 "/></g></g></g><g fill="#b10f2e" fill-opacity="1"><g transform="translate(1148.859025, 557.819889)"><g><path d="M 26.214844 -275.089844 L 26.214844 0 L 138.097656 0 C 217.117188 0 281.734375 -58.710938 281.734375 -137.730469 C 281.734375 -216.007812 217.117188 -275.089844 137.730469 -275.089844 Z M 83.449219 -51.695312 L 83.449219 -223.394531 L 137.730469 -223.394531 C 185.730469 -223.394531 223.023438 -187.578125 223.023438 -137.730469 C 223.023438 -88.25 185.730469 -51.695312 138.097656 -51.695312 Z M 83.449219 -51.695312 "/></g></g></g><g clip-path="url(#4c85475e6c)"><path fill="#b10f2e" d="M 905.785156 320.753906 C 875.480469 296.644531 835.296875 283.363281 792.644531 283.363281 C 749.988281 283.363281 709.804688 296.644531 679.5 320.757812 C 648.632812 345.316406 631.632812 378.140625 631.632812 413.183594 C 631.632812 442.65625 644.003906 471.140625 666.605469 494.042969 L 637.734375 547.007812 C 636.070312 550.058594 636.472656 553.824219 638.738281 556.457031 C 640.355469 558.332031 642.679688 559.355469 645.058594 559.355469 C 646.023438 559.355469 646.992188 559.1875 647.929688 558.84375 L 724.367188 530.792969 C 745.789062 538.886719 768.738281 543 792.644531 543 C 835.300781 543 875.480469 529.722656 905.785156 505.609375 C 936.652344 481.046875 953.652344 448.222656 953.652344 413.183594 C 953.652344 378.140625 936.652344 345.316406 905.785156 320.753906 Z M 792.644531 526.300781 C 769.734375 526.300781 747.820312 522.203125 727.515625 514.117188 C 727.464844 514.097656 727.410156 514.085938 727.359375 514.066406 C 727.222656 514.015625 727.082031 513.96875 726.941406 513.921875 C 726.816406 513.882812 726.691406 513.84375 726.566406 513.8125 C 726.429688 513.773438 726.296875 513.746094 726.160156 513.71875 C 726.027344 513.6875 725.890625 513.660156 725.757812 513.636719 C 725.628906 513.617188 725.496094 513.601562 725.367188 513.589844 C 725.226562 513.570312 725.085938 513.554688 724.945312 513.546875 C 724.816406 513.539062 724.6875 513.539062 724.558594 513.535156 C 724.414062 513.53125 724.273438 513.53125 724.132812 513.535156 C 724.003906 513.539062 723.875 513.554688 723.746094 513.5625 C 723.601562 513.574219 723.460938 513.585938 723.320312 513.605469 C 723.195312 513.625 723.070312 513.648438 722.941406 513.667969 C 722.796875 513.695312 722.652344 513.722656 722.507812 513.757812 C 722.390625 513.785156 722.269531 513.820312 722.152344 513.851562 C 722.003906 513.894531 721.855469 513.941406 721.710938 513.988281 C 721.660156 514.007812 721.609375 514.019531 721.558594 514.039062 L 662.996094 535.527344 L 684.292969 496.460938 C 684.324219 496.40625 684.34375 496.347656 684.375 496.292969 C 684.453125 496.140625 684.527344 495.988281 684.597656 495.832031 C 684.640625 495.726562 684.683594 495.621094 684.726562 495.515625 C 684.785156 495.371094 684.835938 495.222656 684.886719 495.078125 C 684.925781 494.953125 684.964844 494.832031 684.996094 494.710938 C 685.035156 494.578125 685.066406 494.449219 685.097656 494.316406 C 685.128906 494.175781 685.160156 494.03125 685.183594 493.890625 C 685.203125 493.773438 685.222656 493.65625 685.234375 493.539062 C 685.253906 493.382812 685.273438 493.234375 685.285156 493.078125 C 685.292969 492.964844 685.296875 492.851562 685.300781 492.738281 C 685.304688 492.585938 685.308594 492.433594 685.304688 492.28125 C 685.300781 492.160156 685.296875 492.042969 685.289062 491.921875 C 685.277344 491.78125 685.265625 491.636719 685.25 491.496094 C 685.234375 491.363281 685.214844 491.234375 685.195312 491.105469 C 685.171875 490.976562 685.152344 490.847656 685.125 490.722656 C 685.09375 490.582031 685.058594 490.441406 685.019531 490.300781 C 684.988281 490.183594 684.957031 490.074219 684.925781 489.960938 C 684.878906 489.8125 684.828125 489.667969 684.773438 489.523438 C 684.734375 489.417969 684.691406 489.3125 684.648438 489.210938 C 684.589844 489.070312 684.523438 488.929688 684.457031 488.789062 C 684.402344 488.683594 684.351562 488.578125 684.292969 488.472656 C 684.222656 488.347656 684.152344 488.222656 684.074219 488.097656 C 684.003906 487.984375 683.933594 487.871094 683.855469 487.757812 C 683.785156 487.652344 683.710938 487.546875 683.632812 487.445312 C 683.539062 487.320312 683.4375 487.195312 683.335938 487.074219 C 683.265625 486.992188 683.195312 486.910156 683.121094 486.828125 C 683 486.699219 682.878906 486.574219 682.75 486.453125 C 682.707031 486.410156 682.671875 486.367188 682.628906 486.324219 C 660.503906 465.902344 648.320312 439.925781 648.320312 413.179688 C 648.320312 350.804688 713.0625 300.0625 792.644531 300.0625 C 872.222656 300.0625 936.96875 350.804688 936.96875 413.179688 C 936.96875 475.558594 872.222656 526.300781 792.644531 526.300781 Z M 792.644531 526.300781 " fill-opacity="1" fill-rule="nonzero"/></g></svg>