<svg xmlns="http://www.w3.org/2000/svg" xmlns:xlink="http://www.w3.org/1999/xlink" width="1920" zoomAndPan="magnify" viewBox="0 0 1440 809.999993" height="1080" preserveAspectRatio="xMidYMid meet" version="1.0"><defs><g/><clipPath id="8675d86799"><path d="M 322.792969 406 L 766.148438 406 L 766.148438 785.617188 L 322.792969 785.617188 Z M 322.792969 406 " clip-rule="nonzero"/></clipPath></defs><g fill="#b10f2e" fill-opacity="1"><g transform="translate(9.792564, 783.019479)"><g><path d="M 167.871094 0 C 237.351562 0 301.761719 -44.628906 301.761719 -121.71875 C 301.761719 -158.234375 284.519531 -190.691406 250.539062 -214.023438 C 268.796875 -230.757812 277.417969 -251.550781 277.417969 -277.925781 C 277.417969 -348.421875 227.207031 -377.835938 157.21875 -377.835938 L 36.007812 -377.835938 L 36.007812 0 Z M 114.617188 -71.003906 L 114.617188 -168.378906 L 170.40625 -168.378906 C 202.863281 -168.378906 221.121094 -149.613281 221.121094 -119.183594 C 221.121094 -89.769531 202.863281 -71.003906 170.40625 -71.003906 Z M 114.617188 -236.84375 L 114.617188 -306.832031 L 154.175781 -306.832031 C 175.984375 -306.832031 196.777344 -300.746094 196.777344 -271.839844 C 196.777344 -256.117188 192.214844 -236.84375 154.175781 -236.84375 Z M 114.617188 -236.84375 "/></g></g></g><g fill="#b10f2e" fill-opacity="1"><g transform="translate(331.827686, 783.019479)"><g/></g></g><g fill="#b10f2e" fill-opacity="1"><g transform="translate(545.342632, 783.019479)"><g/></g></g><g fill="#b10f2e" fill-opacity="1"><g transform="translate(758.845248, 783.019479)"><g><path d="M 36.007812 -377.835938 L 36.007812 0 L 266.765625 0 L 266.765625 -71.003906 L 114.617188 -71.003906 L 114.617188 -377.835938 Z M 36.007812 -377.835938 "/></g></g></g><g fill="#b10f2e" fill-opacity="1"><g transform="translate(1033.219591, 783.019479)"><g><path d="M 36.007812 -377.835938 L 36.007812 0 L 189.679688 0 C 298.210938 0 386.964844 -80.640625 386.964844 -189.171875 C 386.964844 -296.691406 298.210938 -377.835938 189.171875 -377.835938 Z M 114.617188 -71.003906 L 114.617188 -306.832031 L 189.171875 -306.832031 C 255.101562 -306.832031 306.324219 -257.636719 306.324219 -189.171875 C 306.324219 -121.210938 255.101562 -71.003906 189.679688 -71.003906 Z M 114.617188 -71.003906 "/></g></g></g><g fill="#280000" fill-opacity="1"><g transform="translate(21.333332, 389.05747)"><g><path d="M 25.378906 -378.140625 L 25.378906 0 L 97.453125 0 L 97.453125 -18.273438 C 108.621094 -3.554688 136.539062 5.582031 159.886719 5.582031 C 229.929688 5.582031 285.765625 -54.816406 285.765625 -127.910156 C 285.765625 -202.015625 228.40625 -261.90625 159.886719 -261.90625 C 137.042969 -261.90625 108.621094 -250.742188 97.453125 -238.558594 L 97.453125 -378.140625 Z M 152.78125 -65.984375 C 119.28125 -65.984375 94.410156 -91.363281 94.410156 -127.910156 C 94.410156 -163.945312 119.28125 -189.832031 152.78125 -189.832031 C 185.773438 -189.832031 212.671875 -163.945312 212.671875 -127.910156 C 212.671875 -91.363281 185.773438 -65.984375 152.78125 -65.984375 Z M 152.78125 -65.984375 "/></g></g></g><g fill="#280000" fill-opacity="1"><g transform="translate(321.816414, 389.05747)"><g><path d="M 209.121094 -91.871094 C 197.445312 -73.597656 175.621094 -65.984375 153.792969 -65.984375 C 146.179688 -65.984375 139.074219 -66.492188 132.476562 -69.03125 L 275.613281 -171.558594 C 259.878906 -219.273438 211.152344 -261.90625 147.703125 -261.90625 C 74.105469 -261.90625 14.71875 -202.015625 14.71875 -127.910156 C 14.71875 -54.816406 76.644531 5.582031 153.792969 5.582031 C 199.476562 5.582031 244.652344 -15.226562 266.476562 -47.710938 Z M 87.808594 -127.910156 C 87.808594 -163.945312 114.710938 -189.832031 147.703125 -189.832031 C 161.410156 -189.832031 173.082031 -185.265625 183.234375 -177.652344 L 89.839844 -111.160156 C 88.316406 -116.234375 87.808594 -121.816406 87.808594 -127.910156 Z M 87.808594 -127.910156 "/></g></g></g><g clip-path="url(#8675d86799)"><path fill="#b10f2e" d="M 700.238281 457.445312 C 658.515625 424.304688 603.195312 406.050781 544.472656 406.050781 C 485.746094 406.050781 430.425781 424.304688 388.707031 457.445312 C 346.210938 491.199219 322.804688 536.3125 322.804688 584.476562 C 322.804688 624.984375 339.832031 664.136719 370.949219 695.617188 L 331.203125 768.410156 C 328.914062 772.605469 329.464844 777.777344 332.589844 781.398438 C 334.8125 783.976562 338.011719 785.378906 341.289062 785.378906 C 342.613281 785.378906 343.953125 785.152344 345.242188 784.679688 L 450.476562 746.125 C 479.964844 757.25 511.5625 762.902344 544.472656 762.902344 C 603.199219 762.902344 658.519531 744.648438 700.238281 711.507812 C 742.734375 677.753906 766.140625 632.640625 766.140625 584.476562 C 766.136719 536.3125 742.734375 491.199219 700.238281 457.445312 Z M 544.472656 739.949219 C 512.933594 739.949219 482.765625 734.316406 454.808594 723.207031 C 454.738281 723.175781 454.664062 723.160156 454.59375 723.132812 C 454.40625 723.0625 454.210938 723 454.019531 722.9375 C 453.847656 722.882812 453.675781 722.828125 453.5 722.78125 C 453.316406 722.734375 453.132812 722.695312 452.945312 722.652344 C 452.757812 722.617188 452.574219 722.578125 452.390625 722.546875 C 452.210938 722.515625 452.03125 722.496094 451.851562 722.476562 C 451.660156 722.453125 451.464844 722.433594 451.273438 722.417969 C 451.09375 722.40625 450.917969 722.40625 450.738281 722.402344 C 450.542969 722.402344 450.347656 722.398438 450.152344 722.402344 C 449.976562 722.410156 449.796875 722.429688 449.617188 722.441406 C 449.421875 722.457031 449.226562 722.472656 449.035156 722.5 C 448.859375 722.523438 448.6875 722.558594 448.515625 722.585938 C 448.3125 722.625 448.113281 722.660156 447.914062 722.707031 C 447.75 722.746094 447.589844 722.792969 447.425781 722.839844 C 447.222656 722.898438 447.019531 722.960938 446.816406 723.027344 C 446.746094 723.050781 446.679688 723.066406 446.609375 723.09375 L 365.984375 752.632812 L 395.300781 698.933594 C 395.34375 698.859375 395.375 698.78125 395.414062 698.703125 C 395.523438 698.496094 395.625 698.285156 395.71875 698.070312 C 395.785156 697.929688 395.84375 697.785156 395.898438 697.640625 C 395.980469 697.4375 396.050781 697.238281 396.121094 697.035156 C 396.175781 696.867188 396.226562 696.699219 396.273438 696.53125 C 396.324219 696.351562 396.367188 696.171875 396.410156 695.988281 C 396.457031 695.792969 396.496094 695.601562 396.527344 695.40625 C 396.558594 695.242188 396.582031 695.082031 396.601562 694.917969 C 396.628906 694.707031 396.652344 694.5 396.667969 694.289062 C 396.679688 694.132812 396.683594 693.976562 396.691406 693.820312 C 396.699219 693.609375 396.699219 693.402344 396.695312 693.191406 C 396.691406 693.027344 396.683594 692.863281 396.671875 692.699219 C 396.660156 692.503906 396.644531 692.308594 396.621094 692.113281 C 396.601562 691.933594 396.574219 691.753906 396.542969 691.574219 C 396.515625 691.398438 396.484375 691.222656 396.445312 691.050781 C 396.40625 690.855469 396.355469 690.660156 396.304688 690.46875 C 396.261719 690.3125 396.21875 690.15625 396.171875 690.003906 C 396.109375 689.800781 396.039062 689.601562 395.964844 689.402344 C 395.910156 689.257812 395.851562 689.113281 395.792969 688.972656 C 395.710938 688.777344 395.621094 688.582031 395.527344 688.394531 C 395.457031 688.246094 395.382812 688.101562 395.304688 687.957031 C 395.207031 687.785156 395.109375 687.613281 395.003906 687.441406 C 394.90625 687.285156 394.804688 687.128906 394.699219 686.972656 C 394.601562 686.828125 394.5 686.6875 394.394531 686.546875 C 394.261719 686.375 394.128906 686.203125 393.984375 686.039062 C 393.890625 685.921875 393.789062 685.808594 393.6875 685.695312 C 393.523438 685.519531 393.355469 685.347656 393.179688 685.179688 C 393.121094 685.125 393.070312 685.0625 393.011719 685.007812 C 362.550781 656.933594 345.777344 621.230469 345.777344 584.476562 C 345.777344 498.746094 434.914062 429 544.472656 429 C 654.035156 429 743.167969 498.746094 743.167969 584.476562 C 743.167969 670.207031 654.03125 739.949219 544.472656 739.949219 Z M 544.472656 739.949219 " fill-opacity="1" fill-rule="nonzero"/></g></svg>