<svg xmlns="http://www.w3.org/2000/svg" xmlns:xlink="http://www.w3.org/1999/xlink" width="3300" zoomAndPan="magnify" viewBox="0 0 2475 449.999984" height="600" preserveAspectRatio="xMidYMid meet" version="1.0"><defs><g/><clipPath id="807631efc1"><path d="M 1134.054688 13.003906 L 1617.742188 13.003906 L 1617.742188 427.753906 L 1134.054688 427.753906 Z M 1134.054688 13.003906 " clip-rule="nonzero"/></clipPath></defs><g fill="#fdffff" fill-opacity="1"><g transform="translate(173.089338, 425.629801)"><g><path d="M 27.703125 -412.765625 L 27.703125 0 L 106.378906 0 L 106.378906 -19.945312 C 118.566406 -3.878906 149.039062 6.09375 174.527344 6.09375 C 250.984375 6.09375 311.929688 -59.835938 311.929688 -139.621094 C 311.929688 -220.511719 249.324219 -285.890625 174.527344 -285.890625 C 149.59375 -285.890625 118.566406 -273.699219 106.378906 -260.402344 L 106.378906 -412.765625 Z M 166.769531 -72.027344 C 130.203125 -72.027344 103.054688 -99.730469 103.054688 -139.621094 C 103.054688 -178.957031 130.203125 -207.214844 166.769531 -207.214844 C 202.78125 -207.214844 232.148438 -178.957031 232.148438 -139.621094 C 232.148438 -99.730469 202.78125 -72.027344 166.769531 -72.027344 Z M 166.769531 -72.027344 "/></g></g></g><g fill="#fdffff" fill-opacity="1"><g transform="translate(501.086275, 425.629801)"><g><path d="M 228.269531 -100.28125 C 215.523438 -80.335938 191.703125 -72.027344 167.878906 -72.027344 C 159.566406 -72.027344 151.808594 -72.582031 144.605469 -75.351562 L 300.847656 -187.269531 C 283.671875 -239.347656 230.484375 -285.890625 161.226562 -285.890625 C 80.890625 -285.890625 16.066406 -220.511719 16.066406 -139.621094 C 16.066406 -59.835938 83.660156 6.09375 167.878906 6.09375 C 217.742188 6.09375 267.050781 -16.621094 290.875 -52.082031 Z M 95.851562 -139.621094 C 95.851562 -178.957031 125.214844 -207.214844 161.226562 -207.214844 C 176.1875 -207.214844 188.929688 -202.226562 200.011719 -193.917969 L 98.066406 -121.335938 C 96.40625 -126.878906 95.851562 -132.972656 95.851562 -139.621094 Z M 95.851562 -139.621094 "/></g></g></g><g fill="#b10f2e" fill-opacity="1"><g transform="translate(785.278846, 424.999476)"><g><path d="M 183.355469 0 C 259.246094 0 329.59375 -48.746094 329.59375 -132.945312 C 329.59375 -172.828125 310.761719 -208.28125 273.648438 -233.761719 C 293.589844 -252.042969 303.007812 -274.753906 303.007812 -303.558594 C 303.007812 -380.558594 248.164062 -412.6875 171.722656 -412.6875 L 39.328125 -412.6875 L 39.328125 0 Z M 125.191406 -77.550781 L 125.191406 -183.910156 L 186.125 -183.910156 C 221.578125 -183.910156 241.519531 -163.414062 241.519531 -130.175781 C 241.519531 -98.046875 221.578125 -77.550781 186.125 -77.550781 Z M 125.191406 -258.691406 L 125.191406 -335.136719 L 168.398438 -335.136719 C 192.21875 -335.136719 214.929688 -328.488281 214.929688 -296.914062 C 214.929688 -279.742188 209.945312 -258.691406 168.398438 -258.691406 Z M 125.191406 -258.691406 "/></g></g></g><g fill="#b10f2e" fill-opacity="1"><g transform="translate(1603.422531, 424.999476)"><g><path d="M 39.328125 -412.6875 L 39.328125 0 L 291.375 0 L 291.375 -77.550781 L 125.191406 -77.550781 L 125.191406 -412.6875 Z M 39.328125 -412.6875 "/></g></g></g><g fill="#b10f2e" fill-opacity="1"><g transform="translate(1903.104571, 424.999476)"><g><path d="M 39.328125 -412.6875 L 39.328125 0 L 207.175781 0 C 325.71875 0 422.65625 -88.078125 422.65625 -206.621094 C 422.65625 -324.054688 325.71875 -412.6875 206.621094 -412.6875 Z M 125.191406 -77.550781 L 125.191406 -335.136719 L 206.621094 -335.136719 C 278.632812 -335.136719 334.582031 -281.402344 334.582031 -206.621094 C 334.582031 -132.390625 278.632812 -77.550781 207.175781 -77.550781 Z M 125.191406 -77.550781 "/></g></g></g><g clip-path="url(#807631efc1)"><path fill="#b10f2e" d="M 1545.835938 69.386719 C 1500.316406 33.195312 1439.964844 13.265625 1375.898438 13.265625 C 1311.832031 13.265625 1251.480469 33.195312 1205.960938 69.386719 C 1159.601562 106.246094 1134.070312 155.511719 1134.070312 208.105469 C 1134.070312 252.339844 1152.644531 295.09375 1186.59375 329.46875 L 1143.230469 408.957031 C 1140.734375 413.539062 1141.335938 419.1875 1144.742188 423.140625 C 1147.167969 425.957031 1150.65625 427.488281 1154.234375 427.488281 C 1155.679688 427.488281 1157.136719 427.242188 1158.546875 426.722656 L 1273.351562 384.621094 C 1305.523438 396.769531 1339.996094 402.941406 1375.898438 402.941406 C 1439.964844 402.941406 1500.316406 383.011719 1545.835938 346.824219 C 1592.195312 309.960938 1617.730469 260.699219 1617.730469 208.105469 C 1617.726562 155.511719 1592.195312 106.246094 1545.835938 69.386719 Z M 1375.898438 377.882812 C 1341.488281 377.882812 1308.578125 371.730469 1278.082031 359.597656 C 1278 359.566406 1277.921875 359.546875 1277.84375 359.515625 C 1277.636719 359.4375 1277.429688 359.371094 1277.21875 359.304688 C 1277.03125 359.246094 1276.84375 359.183594 1276.652344 359.132812 C 1276.449219 359.082031 1276.25 359.039062 1276.046875 358.992188 C 1275.84375 358.949219 1275.640625 358.910156 1275.441406 358.875 C 1275.246094 358.84375 1275.050781 358.820312 1274.855469 358.800781 C 1274.644531 358.773438 1274.433594 358.75 1274.222656 358.738281 C 1274.027344 358.722656 1273.832031 358.722656 1273.636719 358.71875 C 1273.421875 358.714844 1273.210938 358.714844 1273 358.71875 C 1272.804688 358.726562 1272.609375 358.746094 1272.417969 358.761719 C 1272.203125 358.78125 1271.992188 358.796875 1271.777344 358.824219 C 1271.589844 358.851562 1271.402344 358.886719 1271.210938 358.921875 C 1270.992188 358.960938 1270.773438 359 1270.558594 359.050781 C 1270.378906 359.09375 1270.203125 359.148438 1270.023438 359.195312 C 1269.800781 359.261719 1269.578125 359.328125 1269.359375 359.402344 C 1269.285156 359.429688 1269.207031 359.445312 1269.132812 359.472656 L 1181.175781 391.730469 L 1213.160156 333.09375 C 1213.203125 333.011719 1213.238281 332.921875 1213.28125 332.839844 C 1213.402344 332.613281 1213.511719 332.382812 1213.617188 332.148438 C 1213.683594 331.992188 1213.75 331.835938 1213.8125 331.679688 C 1213.898438 331.457031 1213.976562 331.238281 1214.050781 331.015625 C 1214.113281 330.832031 1214.167969 330.648438 1214.21875 330.464844 C 1214.273438 330.269531 1214.324219 330.074219 1214.367188 329.875 C 1214.417969 329.660156 1214.460938 329.449219 1214.5 329.238281 C 1214.527344 329.0625 1214.554688 328.882812 1214.578125 328.707031 C 1214.605469 328.476562 1214.632812 328.25 1214.648438 328.019531 C 1214.660156 327.847656 1214.667969 327.679688 1214.675781 327.507812 C 1214.683594 327.277344 1214.683594 327.050781 1214.679688 326.820312 C 1214.675781 326.640625 1214.667969 326.464844 1214.65625 326.285156 C 1214.640625 326.070312 1214.625 325.855469 1214.597656 325.640625 C 1214.574219 325.445312 1214.546875 325.25 1214.515625 325.054688 C 1214.484375 324.863281 1214.449219 324.671875 1214.40625 324.480469 C 1214.363281 324.269531 1214.308594 324.058594 1214.253906 323.847656 C 1214.207031 323.675781 1214.160156 323.507812 1214.109375 323.339844 C 1214.039062 323.117188 1213.964844 322.898438 1213.878906 322.683594 C 1213.820312 322.527344 1213.761719 322.367188 1213.695312 322.210938 C 1213.605469 322 1213.507812 321.789062 1213.40625 321.582031 C 1213.328125 321.421875 1213.246094 321.261719 1213.160156 321.105469 C 1213.058594 320.914062 1212.949219 320.726562 1212.835938 320.542969 C 1212.730469 320.371094 1212.617188 320.199219 1212.503906 320.03125 C 1212.394531 319.875 1212.285156 319.71875 1212.167969 319.566406 C 1212.027344 319.375 1211.878906 319.191406 1211.722656 319.007812 C 1211.617188 318.882812 1211.507812 318.757812 1211.398438 318.636719 C 1211.21875 318.445312 1211.035156 318.253906 1210.84375 318.074219 C 1210.78125 318.011719 1210.726562 317.945312 1210.660156 317.882812 C 1177.429688 287.226562 1159.132812 248.242188 1159.132812 208.101562 C 1159.132812 114.488281 1256.375 38.324219 1375.898438 38.324219 C 1495.425781 38.324219 1592.667969 114.488281 1592.667969 208.101562 C 1592.667969 301.71875 1495.425781 377.882812 1375.898438 377.882812 Z M 1375.898438 377.882812 " fill-opacity="1" fill-rule="nonzero"/></g></svg>