<svg xmlns="http://www.w3.org/2000/svg" xmlns:xlink="http://www.w3.org/1999/xlink" width="3300" zoomAndPan="magnify" viewBox="0 0 2475 449.999984" height="600" preserveAspectRatio="xMidYMid meet" version="1.0"><defs><g/><clipPath id="907fd653be"><path d="M 1112.132812 34.683594 L 1572.957031 34.683594 L 1572.957031 430 L 1112.132812 430 Z M 1112.132812 34.683594 " clip-rule="nonzero"/></clipPath></defs><g fill="#280000" fill-opacity="1"><g transform="translate(195.504397, 428.273311)"><g><path d="M 26.425781 -393.722656 L 26.425781 0 L 101.46875 0 L 101.46875 -19.027344 C 113.097656 -3.699219 142.164062 5.8125 166.472656 5.8125 C 239.402344 5.8125 297.539062 -57.078125 297.539062 -133.179688 C 297.539062 -210.335938 237.820312 -272.699219 166.472656 -272.699219 C 142.691406 -272.699219 113.097656 -261.070312 101.46875 -248.386719 L 101.46875 -393.722656 Z M 159.074219 -68.703125 C 124.195312 -68.703125 98.296875 -95.128906 98.296875 -133.179688 C 98.296875 -170.699219 124.195312 -197.652344 159.074219 -197.652344 C 193.425781 -197.652344 221.433594 -170.699219 221.433594 -133.179688 C 221.433594 -95.128906 193.425781 -68.703125 159.074219 -68.703125 Z M 159.074219 -68.703125 "/></g></g></g><g fill="#280000" fill-opacity="1"><g transform="translate(508.367291, 428.273311)"><g><path d="M 217.734375 -95.65625 C 205.582031 -76.628906 182.855469 -68.703125 160.132812 -68.703125 C 152.203125 -68.703125 144.804688 -69.230469 137.933594 -71.875 L 286.96875 -178.628906 C 270.585938 -228.304688 219.851562 -272.699219 153.789062 -272.699219 C 77.160156 -272.699219 15.324219 -210.335938 15.324219 -133.179688 C 15.324219 -57.078125 79.800781 5.8125 160.132812 5.8125 C 207.695312 5.8125 254.730469 -15.855469 277.453125 -49.675781 Z M 91.429688 -133.179688 C 91.429688 -170.699219 119.4375 -197.652344 153.789062 -197.652344 C 168.058594 -197.652344 180.214844 -192.898438 190.785156 -184.96875 L 93.542969 -115.738281 C 91.957031 -121.023438 91.429688 -126.835938 91.429688 -133.179688 Z M 91.429688 -133.179688 "/></g></g></g><g fill="#b10f2e" fill-opacity="1"><g transform="translate(786.033337, 427.6721)"><g><path d="M 174.894531 0 C 247.28125 0 314.386719 -46.496094 314.386719 -126.8125 C 314.386719 -164.855469 296.421875 -198.671875 261.019531 -222.976562 C 280.042969 -240.414062 289.023438 -262.078125 289.023438 -289.554688 C 289.023438 -363 236.714844 -393.644531 163.796875 -393.644531 L 37.515625 -393.644531 L 37.515625 0 Z M 119.414062 -73.972656 L 119.414062 -175.421875 L 177.535156 -175.421875 C 211.351562 -175.421875 230.375 -155.871094 230.375 -124.167969 C 230.375 -93.523438 211.351562 -73.972656 177.535156 -73.972656 Z M 119.414062 -246.753906 L 119.414062 -319.671875 L 160.628906 -319.671875 C 183.347656 -319.671875 205.011719 -313.332031 205.011719 -283.214844 C 205.011719 -266.832031 200.257812 -246.753906 160.628906 -246.753906 Z M 119.414062 -246.753906 "/></g></g></g><g fill="#b10f2e" fill-opacity="1"><g transform="translate(1121.542783, 427.6721)"><g/></g></g><g fill="#b10f2e" fill-opacity="1"><g transform="translate(1343.991443, 427.6721)"><g/></g></g><g fill="#b10f2e" fill-opacity="1"><g transform="translate(1566.427256, 427.6721)"><g><path d="M 37.515625 -393.644531 L 37.515625 0 L 277.929688 0 L 277.929688 -73.972656 L 119.414062 -73.972656 L 119.414062 -393.644531 Z M 37.515625 -393.644531 "/></g></g></g><g fill="#b10f2e" fill-opacity="1"><g transform="translate(1852.281742, 427.6721)"><g><path d="M 37.515625 -393.644531 L 37.515625 0 L 197.613281 0 C 310.6875 0 403.15625 -84.011719 403.15625 -197.085938 C 403.15625 -309.105469 310.6875 -393.644531 197.085938 -393.644531 Z M 119.414062 -73.972656 L 119.414062 -319.671875 L 197.085938 -319.671875 C 265.777344 -319.671875 319.144531 -268.417969 319.144531 -197.085938 C 319.144531 -126.285156 265.777344 -73.972656 197.613281 -73.972656 Z M 119.414062 -73.972656 "/></g></g></g><g clip-path="url(#907fd653be)"><path fill="#b10f2e" d="M 1504.449219 88.4375 C 1461.082031 53.933594 1403.582031 34.929688 1342.542969 34.929688 C 1281.503906 34.929688 1224.007812 53.933594 1180.640625 88.4375 C 1136.46875 123.582031 1112.144531 170.554688 1112.144531 220.699219 C 1112.144531 262.875 1129.84375 303.636719 1162.183594 336.410156 L 1120.871094 412.199219 C 1118.492188 416.570312 1119.066406 421.953125 1122.3125 425.722656 C 1124.625 428.40625 1127.949219 429.871094 1131.355469 429.871094 C 1132.734375 429.871094 1134.121094 429.632812 1135.464844 429.140625 L 1244.84375 389 C 1275.496094 400.582031 1308.335938 406.464844 1342.546875 406.464844 C 1403.585938 406.464844 1461.085938 387.460938 1504.449219 352.957031 C 1548.621094 317.8125 1572.945312 270.84375 1572.945312 220.699219 C 1572.945312 170.554688 1548.621094 123.582031 1504.449219 88.4375 Z M 1342.542969 382.570312 C 1309.761719 382.570312 1278.40625 376.707031 1249.347656 365.136719 C 1249.273438 365.105469 1249.199219 365.089844 1249.125 365.0625 C 1248.925781 364.988281 1248.726562 364.921875 1248.527344 364.859375 C 1248.351562 364.800781 1248.167969 364.742188 1247.988281 364.695312 C 1247.796875 364.644531 1247.605469 364.605469 1247.410156 364.5625 C 1247.21875 364.523438 1247.027344 364.480469 1246.832031 364.449219 C 1246.648438 364.417969 1246.460938 364.398438 1246.273438 364.378906 C 1246.074219 364.351562 1245.875 364.332031 1245.671875 364.316406 C 1245.488281 364.304688 1245.300781 364.304688 1245.117188 364.300781 C 1244.914062 364.296875 1244.710938 364.292969 1244.507812 364.300781 C 1244.324219 364.308594 1244.136719 364.328125 1243.953125 364.339844 C 1243.75 364.359375 1243.546875 364.375 1243.34375 364.402344 C 1243.164062 364.425781 1242.984375 364.460938 1242.804688 364.492188 C 1242.597656 364.53125 1242.390625 364.570312 1242.183594 364.617188 C 1242.011719 364.660156 1241.84375 364.707031 1241.671875 364.757812 C 1241.460938 364.816406 1241.25 364.878906 1241.042969 364.953125 C 1240.96875 364.976562 1240.898438 364.992188 1240.824219 365.019531 L 1157.023438 395.773438 L 1187.496094 339.867188 C 1187.539062 339.789062 1187.570312 339.707031 1187.613281 339.628906 C 1187.726562 339.410156 1187.832031 339.191406 1187.929688 338.96875 C 1187.996094 338.820312 1188.058594 338.667969 1188.117188 338.519531 C 1188.199219 338.308594 1188.277344 338.097656 1188.34375 337.886719 C 1188.402344 337.714844 1188.457031 337.539062 1188.503906 337.363281 C 1188.558594 337.175781 1188.605469 336.988281 1188.648438 336.796875 C 1188.695312 336.597656 1188.734375 336.394531 1188.773438 336.191406 C 1188.800781 336.023438 1188.824219 335.855469 1188.847656 335.683594 C 1188.875 335.464844 1188.898438 335.25 1188.914062 335.03125 C 1188.925781 334.867188 1188.933594 334.707031 1188.941406 334.542969 C 1188.949219 334.324219 1188.949219 334.105469 1188.945312 333.886719 C 1188.941406 333.714844 1188.933594 333.546875 1188.921875 333.375 C 1188.90625 333.171875 1188.890625 332.96875 1188.867188 332.765625 C 1188.847656 332.578125 1188.816406 332.390625 1188.789062 332.203125 C 1188.757812 332.019531 1188.726562 331.839844 1188.6875 331.65625 C 1188.644531 331.453125 1188.59375 331.253906 1188.539062 331.050781 C 1188.496094 330.886719 1188.449219 330.726562 1188.402344 330.566406 C 1188.335938 330.355469 1188.261719 330.148438 1188.183594 329.941406 C 1188.128906 329.792969 1188.070312 329.640625 1188.007812 329.492188 C 1187.921875 329.289062 1187.828125 329.089844 1187.730469 328.890625 C 1187.65625 328.738281 1187.578125 328.589844 1187.5 328.4375 C 1187.398438 328.257812 1187.296875 328.078125 1187.1875 327.902344 C 1187.085938 327.738281 1186.980469 327.574219 1186.871094 327.414062 C 1186.769531 327.261719 1186.664062 327.113281 1186.550781 326.96875 C 1186.417969 326.789062 1186.277344 326.613281 1186.128906 326.4375 C 1186.027344 326.316406 1185.925781 326.203125 1185.816406 326.085938 C 1185.648438 325.898438 1185.472656 325.722656 1185.292969 325.546875 C 1185.230469 325.488281 1185.175781 325.421875 1185.113281 325.367188 C 1153.457031 296.136719 1136.023438 258.964844 1136.023438 220.695312 C 1136.023438 131.441406 1228.667969 58.824219 1342.546875 58.824219 C 1456.421875 58.824219 1549.070312 131.441406 1549.070312 220.695312 C 1549.070312 309.957031 1456.421875 382.570312 1342.542969 382.570312 Z M 1342.542969 382.570312 " fill-opacity="1" fill-rule="nonzero"/></g></svg>