<svg xmlns="http://www.w3.org/2000/svg" xmlns:xlink="http://www.w3.org/1999/xlink" width="1100" zoomAndPan="magnify" viewBox="0 0 824.88 604.499982" height="806" preserveAspectRatio="xMidYMid meet" version="1.0"><defs><clipPath id="1f7085b1a2"><path d="M 75.785156 75.015625 L 495.4375 75.015625 L 495.4375 434.71875 L 75.785156 434.71875 Z M 75.785156 75.015625 " clip-rule="nonzero"/></clipPath><clipPath id="656d04d08d"><path d="M 329.441406 169.019531 L 748.96875 169.019531 L 748.96875 528.722656 L 329.441406 528.722656 Z M 329.441406 169.019531 " clip-rule="nonzero"/></clipPath></defs><g clip-path="url(#1f7085b1a2)"><path fill="#000000" d="M 433.050781 123.917969 C 393.558594 92.53125 341.195312 75.246094 285.609375 75.246094 C 230.023438 75.246094 177.664062 92.53125 138.171875 123.917969 C 97.945312 155.882812 75.792969 198.609375 75.792969 244.222656 C 75.792969 282.585938 91.910156 319.664062 121.363281 349.476562 L 83.742188 418.417969 C 81.574219 422.390625 82.097656 427.289062 85.054688 430.71875 C 87.160156 433.160156 90.1875 434.488281 93.289062 434.488281 C 94.542969 434.488281 95.808594 434.273438 97.03125 433.824219 L 196.636719 397.3125 C 224.550781 407.847656 254.457031 413.199219 285.609375 413.199219 C 341.195312 413.199219 393.558594 395.914062 433.050781 364.53125 C 473.273438 332.5625 495.425781 289.835938 495.425781 244.222656 C 495.425781 198.609375 473.273438 155.882812 433.050781 123.917969 Z M 285.609375 391.464844 C 255.757812 391.464844 227.199219 386.128906 200.742188 375.609375 C 200.671875 375.582031 200.605469 375.5625 200.535156 375.539062 C 200.355469 375.46875 200.175781 375.410156 199.996094 375.351562 C 199.832031 375.300781 199.667969 375.25 199.5 375.207031 C 199.328125 375.160156 199.152344 375.121094 198.976562 375.085938 C 198.800781 375.046875 198.625 375.011719 198.449219 374.980469 C 198.28125 374.953125 198.109375 374.9375 197.941406 374.917969 C 197.757812 374.894531 197.578125 374.875 197.394531 374.863281 C 197.222656 374.851562 197.054688 374.851562 196.886719 374.847656 C 196.703125 374.84375 196.515625 374.839844 196.332031 374.847656 C 196.164062 374.855469 195.996094 374.871094 195.828125 374.882812 C 195.640625 374.898438 195.457031 374.914062 195.273438 374.9375 C 195.109375 374.960938 194.945312 374.992188 194.78125 375.023438 C 194.59375 375.054688 194.402344 375.089844 194.214844 375.136719 C 194.058594 375.171875 193.90625 375.21875 193.75 375.261719 C 193.558594 375.316406 193.367188 375.375 193.175781 375.4375 C 193.109375 375.460938 193.042969 375.476562 192.980469 375.5 L 116.664062 403.476562 L 144.414062 352.621094 C 144.453125 352.550781 144.484375 352.476562 144.519531 352.402344 C 144.625 352.203125 144.722656 352.003906 144.8125 351.800781 C 144.871094 351.667969 144.925781 351.53125 144.980469 351.394531 C 145.054688 351.203125 145.125 351.011719 145.1875 350.820312 C 145.242188 350.664062 145.289062 350.503906 145.332031 350.34375 C 145.382812 350.171875 145.425781 350.003906 145.464844 349.828125 C 145.507812 349.644531 145.542969 349.460938 145.578125 349.277344 C 145.601562 349.125 145.625 348.972656 145.644531 348.816406 C 145.667969 348.617188 145.691406 348.421875 145.707031 348.222656 C 145.71875 348.074219 145.722656 347.925781 145.730469 347.777344 C 145.734375 347.578125 145.738281 347.378906 145.734375 347.179688 C 145.730469 347.027344 145.722656 346.871094 145.710938 346.714844 C 145.699219 346.53125 145.683594 346.34375 145.664062 346.160156 C 145.644531 345.988281 145.617188 345.820312 145.589844 345.652344 C 145.5625 345.484375 145.535156 345.316406 145.5 345.152344 C 145.457031 344.96875 145.414062 344.785156 145.363281 344.601562 C 145.324219 344.453125 145.285156 344.308594 145.238281 344.164062 C 145.179688 343.96875 145.113281 343.78125 145.039062 343.59375 C 144.988281 343.457031 144.9375 343.320312 144.878906 343.1875 C 144.800781 343 144.71875 342.816406 144.628906 342.636719 C 144.558594 342.5 144.492188 342.363281 144.417969 342.226562 C 144.324219 342.0625 144.234375 341.898438 144.132812 341.738281 C 144.042969 341.585938 143.945312 341.441406 143.84375 341.292969 C 143.753906 341.15625 143.65625 341.023438 143.554688 340.890625 C 143.429688 340.726562 143.304688 340.5625 143.167969 340.40625 C 143.078125 340.296875 142.984375 340.191406 142.886719 340.085938 C 142.730469 339.917969 142.574219 339.753906 142.40625 339.597656 C 142.351562 339.542969 142.304688 339.484375 142.246094 339.429688 C 113.414062 312.84375 97.539062 279.03125 97.539062 244.222656 C 97.539062 163.03125 181.90625 96.980469 285.609375 96.980469 C 389.3125 96.980469 473.683594 163.03125 473.683594 244.222656 C 473.683594 325.414062 389.3125 391.464844 285.609375 391.464844 Z M 285.609375 391.464844 " fill-opacity="1" fill-rule="nonzero"/></g><g clip-path="url(#656d04d08d)"><path fill="#ffffff" d="M 391.828125 217.921875 C 431.320312 186.535156 483.683594 169.25 539.269531 169.25 C 594.855469 169.25 647.214844 186.535156 686.707031 217.921875 C 726.933594 249.886719 749.085938 292.613281 749.085938 338.226562 C 749.085938 376.589844 732.96875 413.667969 703.515625 443.480469 L 741.136719 512.421875 C 743.304688 516.394531 742.78125 521.292969 739.824219 524.722656 C 737.71875 527.164062 734.691406 528.492188 731.589844 528.492188 C 730.335938 528.492188 729.070312 528.277344 727.847656 527.828125 L 628.242188 491.316406 C 600.328125 501.851562 570.421875 507.203125 539.269531 507.203125 C 483.683594 507.203125 431.320312 489.917969 391.828125 458.535156 C 351.605469 426.566406 329.453125 383.839844 329.453125 338.226562 C 329.453125 292.613281 351.605469 249.886719 391.828125 217.921875 Z M 539.269531 485.46875 C 569.125 485.46875 597.679688 480.132812 624.136719 469.613281 C 624.207031 469.585938 624.273438 469.566406 624.34375 469.542969 C 624.523438 469.476562 624.703125 469.417969 624.886719 469.359375 C 625.046875 469.304688 625.210938 469.253906 625.378906 469.210938 C 625.550781 469.164062 625.726562 469.128906 625.902344 469.089844 C 626.078125 469.050781 626.253906 469.015625 626.429688 468.984375 C 626.597656 468.957031 626.769531 468.941406 626.9375 468.921875 C 627.121094 468.898438 627.304688 468.878906 627.488281 468.867188 C 627.65625 468.855469 627.824219 468.855469 627.992188 468.851562 C 628.179688 468.847656 628.363281 468.84375 628.546875 468.851562 C 628.714844 468.859375 628.882812 468.875 629.050781 468.886719 C 629.238281 468.902344 629.421875 468.917969 629.605469 468.945312 C 629.769531 468.964844 629.933594 468.996094 630.097656 469.027344 C 630.289062 469.0625 630.476562 469.09375 630.664062 469.140625 C 630.820312 469.175781 630.972656 469.222656 631.128906 469.265625 C 631.320312 469.320312 631.511719 469.378906 631.703125 469.441406 C 631.769531 469.464844 631.835938 469.480469 631.902344 469.503906 L 708.214844 497.480469 L 680.464844 446.625 C 680.425781 446.554688 680.394531 446.480469 680.359375 446.40625 C 680.253906 446.207031 680.160156 446.011719 680.066406 445.808594 C 680.007812 445.671875 679.953125 445.535156 679.898438 445.398438 C 679.824219 445.210938 679.753906 445.019531 679.691406 444.824219 C 679.636719 444.667969 679.589844 444.507812 679.546875 444.347656 C 679.496094 444.175781 679.453125 444.007812 679.414062 443.835938 C 679.371094 443.652344 679.335938 443.46875 679.304688 443.28125 C 679.277344 443.128906 679.253906 442.976562 679.234375 442.820312 C 679.210938 442.621094 679.1875 442.425781 679.171875 442.226562 C 679.160156 442.078125 679.15625 441.929688 679.148438 441.78125 C 679.144531 441.582031 679.140625 441.386719 679.144531 441.1875 C 679.148438 441.03125 679.15625 440.875 679.167969 440.722656 C 679.179688 440.535156 679.195312 440.347656 679.214844 440.164062 C 679.234375 439.992188 679.261719 439.824219 679.289062 439.65625 C 679.316406 439.488281 679.34375 439.320312 679.382812 439.15625 C 679.421875 438.972656 679.464844 438.789062 679.515625 438.605469 C 679.554688 438.457031 679.59375 438.3125 679.640625 438.167969 C 679.699219 437.976562 679.765625 437.785156 679.839844 437.597656 C 679.890625 437.460938 679.941406 437.324219 680 437.191406 C 680.078125 437.003906 680.160156 436.824219 680.25 436.640625 C 680.320312 436.503906 680.390625 436.367188 680.460938 436.230469 C 680.554688 436.066406 680.648438 435.902344 680.746094 435.742188 C 680.835938 435.589844 680.933594 435.445312 681.035156 435.296875 C 681.128906 435.160156 681.222656 435.027344 681.324219 434.894531 C 681.449219 434.730469 681.574219 434.570312 681.710938 434.410156 C 681.800781 434.300781 681.894531 434.195312 681.992188 434.089844 C 682.148438 433.921875 682.308594 433.757812 682.472656 433.601562 C 682.527344 433.546875 682.578125 433.488281 682.632812 433.433594 C 711.464844 406.847656 727.339844 373.035156 727.339844 338.226562 C 727.339844 257.035156 642.972656 190.984375 539.269531 190.984375 C 435.566406 190.984375 351.195312 257.035156 351.195312 338.226562 C 351.199219 419.417969 435.566406 485.46875 539.269531 485.46875 Z M 539.269531 485.46875 " fill-opacity="1" fill-rule="nonzero"/></g></svg>