<svg xmlns="http://www.w3.org/2000/svg" xmlns:xlink="http://www.w3.org/1999/xlink" width="1080" zoomAndPan="magnify" viewBox="0 0 810 809.999993" height="1080" preserveAspectRatio="xMidYMid meet" version="1.0"><path fill="#280000" d="M 240.617188 152.800781 C 240.648438 151.125 240.71875 149.449219 240.828125 147.777344 C 240.941406 146.105469 241.09375 144.4375 241.289062 142.769531 C 241.480469 141.105469 241.714844 139.445312 241.992188 137.792969 C 242.265625 136.140625 242.582031 134.496094 242.9375 132.855469 C 243.292969 131.21875 243.691406 129.589844 244.125 127.972656 C 244.5625 126.351562 245.039062 124.746094 245.554688 123.152344 C 246.066406 121.554688 246.621094 119.972656 247.214844 118.40625 C 247.808594 116.839844 248.4375 115.285156 249.105469 113.75 C 249.777344 112.210938 250.480469 110.691406 251.226562 109.191406 C 251.96875 107.6875 252.75 106.203125 253.566406 104.742188 C 254.382812 103.277344 255.234375 101.832031 256.121094 100.410156 C 257.007812 98.988281 257.929688 97.589844 258.882812 96.210938 C 259.839844 94.835938 260.828125 93.484375 261.851562 92.15625 C 262.875 90.828125 263.929688 89.523438 265.015625 88.246094 C 266.101562 86.972656 267.21875 85.722656 268.363281 84.5 C 269.511719 83.277344 270.6875 82.085938 271.894531 80.921875 C 273.101562 79.757812 274.335938 78.625 275.597656 77.519531 C 276.859375 76.417969 278.148438 75.347656 279.460938 74.308594 C 280.777344 73.265625 282.113281 72.257812 283.476562 71.285156 C 284.84375 70.3125 286.230469 69.371094 287.640625 68.464844 C 289.050781 67.558594 290.480469 66.6875 291.933594 65.851562 C 293.386719 65.015625 294.859375 64.21875 296.351562 63.453125 C 297.84375 62.691406 299.351562 61.964844 300.878906 61.273438 C 302.40625 60.585938 303.949219 59.933594 305.511719 59.320312 C 307.070312 58.707031 308.644531 58.132812 310.230469 57.597656 C 311.820312 57.0625 313.421875 56.5625 315.03125 56.105469 C 316.644531 55.648438 318.265625 55.230469 319.898438 54.851562 C 321.53125 54.476562 323.171875 54.136719 324.824219 53.839844 C 326.472656 53.542969 328.128906 53.289062 329.789062 53.070312 C 331.453125 52.855469 333.117188 52.679688 334.789062 52.546875 C 336.457031 52.414062 338.132812 52.320312 339.808594 52.269531 C 341.480469 52.214844 343.15625 52.207031 344.832031 52.234375 C 346.507812 52.265625 348.183594 52.339844 349.855469 52.449219 C 351.527344 52.5625 353.195312 52.71875 354.859375 52.910156 C 356.523438 53.105469 358.183594 53.34375 359.835938 53.617188 C 361.488281 53.894531 363.132812 54.210938 364.769531 54.566406 C 366.410156 54.925781 368.035156 55.320312 369.65625 55.757812 C 371.273438 56.195312 372.878906 56.671875 374.472656 57.1875 C 376.066406 57.703125 377.648438 58.257812 379.214844 58.851562 C 380.785156 59.445312 382.335938 60.078125 383.871094 60.746094 C 385.40625 61.417969 386.925781 62.125 388.429688 62.867188 C 389.929688 63.613281 391.414062 64.394531 392.875 65.210938 C 394.339844 66.027344 395.78125 66.878906 397.203125 67.769531 C 398.625 68.65625 400.023438 69.578125 401.398438 70.535156 C 402.773438 71.492188 404.125 72.480469 405.453125 73.503906 C 406.78125 74.527344 408.082031 75.582031 409.359375 76.667969 C 410.632812 77.757812 411.882812 78.875 413.105469 80.023438 C 414.324219 81.171875 415.515625 82.347656 416.679688 83.554688 C 417.84375 84.761719 418.976562 85.996094 420.078125 87.261719 C 421.179688 88.523438 422.25 89.8125 423.289062 91.128906 C 424.328125 92.441406 425.335938 93.78125 426.308594 95.148438 C 427.28125 96.511719 428.21875 97.898438 429.125 99.308594 C 430.03125 100.71875 430.902344 102.152344 431.734375 103.605469 C 432.570312 105.058594 433.371094 106.53125 434.132812 108.023438 C 434.894531 109.519531 435.621094 111.027344 436.308594 112.558594 C 436.996094 114.085938 437.648438 115.628906 438.257812 117.191406 C 438.871094 118.75 439.445312 120.324219 439.980469 121.914062 C 440.515625 123.5 441.011719 125.101562 441.46875 126.714844 C 441.925781 128.328125 442.339844 129.949219 442.71875 131.585938 C 443.09375 133.21875 443.433594 134.859375 443.726562 136.507812 C 444.023438 138.160156 444.28125 139.816406 444.496094 141.476562 C 444.710938 143.140625 444.882812 144.808594 445.015625 146.476562 C 445.152344 148.148438 445.242188 149.820312 445.292969 151.496094 C 445.34375 153.171875 445.355469 154.847656 445.324219 156.523438 C 445.257812 158.175781 445.152344 159.828125 445.007812 161.472656 C 444.863281 163.121094 444.679688 164.761719 444.457031 166.402344 C 444.230469 168.039062 443.96875 169.671875 443.664062 171.296875 C 443.363281 172.921875 443.019531 174.539062 442.636719 176.148438 C 442.257812 177.757812 441.835938 179.355469 441.375 180.945312 C 440.917969 182.535156 440.421875 184.109375 439.886719 185.675781 C 439.351562 187.238281 438.777344 188.789062 438.167969 190.324219 C 437.554688 191.863281 436.910156 193.382812 436.226562 194.890625 C 435.539062 196.394531 434.820312 197.882812 434.066406 199.351562 C 433.308594 200.824219 432.515625 202.273438 431.691406 203.707031 C 430.863281 205.136719 430.003906 206.550781 429.109375 207.941406 C 428.214844 209.332031 427.285156 210.699219 426.324219 212.042969 C 425.363281 213.390625 424.371094 214.710938 423.347656 216.007812 C 422.320312 217.304688 421.265625 218.578125 420.179688 219.824219 C 419.09375 221.070312 417.976562 222.289062 416.832031 223.480469 C 415.683594 224.671875 414.511719 225.835938 413.308594 226.972656 C 412.105469 228.105469 410.878906 229.210938 409.621094 230.289062 C 408.367188 231.363281 407.085938 232.40625 405.78125 233.421875 C 404.472656 234.433594 403.144531 235.417969 401.789062 236.367188 C 400.4375 237.316406 399.0625 238.230469 397.664062 239.113281 C 396.265625 239.996094 394.847656 240.84375 393.40625 241.65625 C 391.96875 242.472656 390.511719 243.25 389.035156 243.992188 C 387.558594 244.734375 386.0625 245.441406 384.550781 246.113281 C 383.039062 246.785156 381.515625 247.417969 379.972656 248.015625 C 378.429688 248.613281 376.875 249.171875 375.308594 249.691406 C 373.738281 250.214844 372.15625 250.695312 370.566406 251.140625 C 368.972656 251.585938 367.371094 251.992188 365.757812 252.359375 C 364.148438 252.726562 362.527344 253.054688 360.898438 253.34375 C 359.273438 253.632812 357.636719 253.882812 356 254.089844 C 354.359375 254.300781 352.714844 254.472656 351.066406 254.601562 C 349.417969 254.730469 347.769531 254.820312 346.117188 254.871094 C 344.464844 254.921875 342.8125 254.929688 341.160156 254.902344 C 339.503906 254.871094 337.855469 254.800781 336.203125 254.691406 C 334.554688 254.582031 332.910156 254.429688 331.265625 254.242188 C 329.625 254.050781 327.988281 253.820312 326.359375 253.550781 C 324.726562 253.28125 323.101562 252.976562 321.488281 252.625 C 319.871094 252.277344 318.265625 251.890625 316.667969 251.464844 C 315.070312 251.042969 313.484375 250.578125 311.90625 250.074219 C 310.332031 249.570312 308.769531 249.03125 307.222656 248.453125 C 305.671875 247.875 304.140625 247.261719 302.621094 246.609375 C 301.101562 245.953125 299.597656 245.265625 298.113281 244.539062 C 296.628906 243.816406 295.160156 243.054688 293.710938 242.257812 C 292.261719 241.460938 290.835938 240.632812 289.425781 239.765625 C 288.015625 238.898438 286.628906 238 285.265625 237.066406 C 283.902344 236.136719 282.558594 235.167969 281.242188 234.171875 C 279.921875 233.175781 278.628906 232.144531 277.359375 231.085938 C 276.09375 230.023438 274.851562 228.933594 273.632812 227.8125 C 272.417969 226.691406 271.230469 225.542969 270.070312 224.363281 C 268.910156 223.1875 267.78125 221.980469 266.679688 220.75 C 265.578125 219.515625 264.507812 218.257812 263.464844 216.972656 C 262.425781 215.6875 261.417969 214.378906 260.441406 213.042969 C 259.460938 211.710938 258.519531 210.351562 257.605469 208.972656 C 256.695312 207.59375 255.816406 206.195312 254.972656 204.769531 C 254.128906 203.347656 253.320312 201.90625 252.546875 200.445312 C 251.773438 198.984375 251.035156 197.507812 250.332031 196.007812 C 249.632812 194.511719 248.964844 193 248.335938 191.46875 C 247.707031 189.941406 247.117188 188.398438 246.5625 186.839844 C 246.007812 185.28125 245.492188 183.710938 245.015625 182.128906 C 244.535156 180.546875 244.097656 178.953125 243.695312 177.347656 C 243.292969 175.742188 242.933594 174.132812 242.609375 172.507812 C 242.289062 170.886719 242.003906 169.257812 241.761719 167.625 C 241.515625 165.988281 241.3125 164.347656 241.148438 162.703125 C 240.984375 161.058594 240.859375 159.410156 240.773438 157.757812 C 240.6875 156.105469 240.644531 154.453125 240.640625 152.800781 Z M 719.8125 284.390625 C 719.070312 283.222656 718.195312 282.171875 717.183594 281.226562 C 716.171875 280.285156 715.0625 279.484375 713.847656 278.824219 C 712.632812 278.160156 711.359375 277.664062 710.019531 277.324219 C 708.679688 276.988281 707.316406 276.820312 705.9375 276.828125 L 610.59375 276.828125 C 610.042969 276.828125 609.488281 276.855469 608.9375 276.910156 C 608.386719 276.964844 607.835938 277.042969 607.292969 277.152344 C 606.75 277.261719 606.214844 277.394531 605.683594 277.558594 C 605.152344 277.71875 604.632812 277.902344 604.117188 278.117188 C 603.605469 278.328125 603.105469 278.566406 602.617188 278.828125 C 602.128906 279.089844 601.652344 279.371094 601.191406 279.679688 C 600.730469 279.988281 600.289062 280.320312 599.859375 280.671875 C 599.429688 281.023438 599.019531 281.394531 598.628906 281.785156 C 598.234375 282.179688 597.863281 282.589844 597.511719 283.015625 C 597.160156 283.445312 596.832031 283.890625 596.523438 284.351562 C 596.214844 284.8125 595.929688 285.289062 595.667969 285.777344 C 595.410156 286.265625 595.171875 286.765625 594.960938 287.277344 C 594.746094 287.789062 594.5625 288.3125 594.398438 288.84375 C 594.238281 289.371094 594.105469 289.910156 593.996094 290.453125 C 593.886719 290.996094 593.808594 291.546875 593.753906 292.097656 C 593.699219 292.648438 593.671875 293.203125 593.671875 293.757812 C 593.671875 294.308594 593.699219 294.863281 593.753906 295.414062 C 593.808594 295.96875 593.886719 296.515625 593.996094 297.058594 C 594.105469 297.601562 594.238281 298.140625 594.398438 298.671875 C 594.5625 299.199219 594.746094 299.722656 594.960938 300.234375 C 595.171875 300.746094 595.410156 301.246094 595.667969 301.734375 C 595.929688 302.226562 596.214844 302.699219 596.523438 303.160156 C 596.832031 303.621094 597.160156 304.066406 597.511719 304.496094 C 597.863281 304.921875 598.234375 305.332031 598.628906 305.726562 C 599.019531 306.117188 599.429688 306.488281 599.859375 306.839844 C 600.289062 307.195312 600.730469 307.523438 601.191406 307.832031 C 601.652344 308.140625 602.128906 308.425781 602.617188 308.683594 C 603.105469 308.945312 603.605469 309.183594 604.117188 309.394531 C 604.632812 309.609375 605.152344 309.792969 605.683594 309.957031 C 606.214844 310.117188 606.75 310.25 607.292969 310.359375 C 607.835938 310.46875 608.386719 310.546875 608.9375 310.601562 C 609.488281 310.65625 610.042969 310.683594 610.59375 310.683594 L 674.910156 310.683594 C 621.089844 364.515625 567.34375 418.308594 513.675781 472.066406 L 513.675781 424.894531 L 513.449219 425.117188 L 513.449219 391.148438 C 513.433594 389.492188 513.378906 387.835938 513.285156 386.179688 C 513.191406 384.527344 513.054688 382.875 512.878906 381.226562 C 512.703125 379.578125 512.488281 377.933594 512.234375 376.296875 C 511.980469 374.65625 511.683594 373.027344 511.351562 371.402344 C 511.019531 369.78125 510.644531 368.164062 510.234375 366.558594 C 509.820312 364.953125 509.371094 363.359375 508.882812 361.773438 C 508.390625 360.191406 507.863281 358.621094 507.296875 357.0625 C 506.734375 355.503906 506.128906 353.960938 505.492188 352.429688 C 504.851562 350.902344 504.171875 349.390625 503.460938 347.894531 C 502.746094 346.398438 501.996094 344.917969 501.210938 343.457031 C 500.425781 342 499.605469 340.558594 498.75 339.140625 C 497.898438 337.71875 497.007812 336.320312 496.085938 334.941406 C 495.164062 333.566406 494.207031 332.210938 493.21875 330.882812 C 492.230469 329.550781 491.210938 328.246094 490.160156 326.964844 C 489.105469 325.683594 488.023438 324.425781 486.914062 323.199219 C 485.800781 321.96875 484.660156 320.769531 483.488281 319.59375 C 482.316406 318.421875 481.117188 317.277344 479.894531 316.160156 C 478.667969 315.046875 477.414062 313.960938 476.136719 312.90625 C 474.855469 311.851562 473.554688 310.828125 472.226562 309.835938 C 470.898438 308.84375 469.546875 307.886719 468.171875 306.960938 C 466.796875 306.035156 465.398438 305.144531 463.980469 304.285156 C 462.566406 303.425781 461.125 302.601562 459.667969 301.8125 C 458.210938 301.027344 456.734375 300.273438 455.242188 299.554688 C 453.746094 298.839844 452.234375 298.160156 450.707031 297.515625 C 449.179688 296.871094 447.640625 296.265625 446.082031 295.695312 C 444.527344 295.125 442.957031 294.59375 441.375 294.101562 C 439.792969 293.609375 438.199219 293.15625 436.59375 292.738281 C 434.988281 292.324219 433.375 291.949219 431.753906 291.609375 C 430.128906 291.273438 428.5 290.972656 426.863281 290.714844 C 425.226562 290.457031 423.585938 290.238281 421.9375 290.058594 C 420.289062 289.882812 418.636719 289.742188 416.984375 289.644531 C 415.328125 289.542969 413.671875 289.484375 412.015625 289.46875 C 365.757812 289.355469 319.496094 289.390625 273.234375 289.582031 C 270.347656 289.605469 267.460938 289.753906 264.585938 290.027344 C 261.707031 290.296875 258.847656 290.691406 256.003906 291.210938 C 253.160156 291.726562 250.34375 292.367188 247.558594 293.125 C 244.769531 293.882812 242.015625 294.761719 239.304688 295.753906 C 236.589844 296.75 233.925781 297.859375 231.304688 299.082031 C 228.6875 300.308594 226.125 301.640625 223.621094 303.085938 C 221.117188 304.527344 218.679688 306.074219 216.308594 307.730469 C 213.9375 309.382812 211.644531 311.132812 209.421875 312.980469 C 207.199219 314.832031 205.0625 316.773438 203.007812 318.804688 C 200.953125 320.839844 198.992188 322.957031 197.117188 325.15625 C 195.246094 327.359375 193.46875 329.636719 191.792969 331.988281 C 190.113281 334.34375 188.539062 336.765625 187.070312 339.253906 C 185.601562 341.742188 184.238281 344.289062 182.988281 346.894531 C 181.734375 349.5 180.597656 352.15625 179.574219 354.859375 C 178.550781 357.5625 177.644531 360.304688 176.855469 363.085938 C 176.066406 365.863281 175.398438 368.675781 174.847656 371.511719 C 173.035156 387.261719 172.246094 403.0625 172.480469 418.910156 C 172.367188 420.605469 172.480469 422.410156 172.480469 424.78125 C 172.191406 424.605469 171.890625 424.457031 171.578125 424.328125 L 171.578125 483.125 C 172.125 485.996094 172.390625 488.894531 172.367188 491.816406 C 172.480469 501.746094 172.480469 591.015625 172.480469 627.582031 L 171.578125 627.582031 L 171.578125 659.96875 L 99.367188 732.195312 C 98.976562 732.589844 98.605469 733.003906 98.253906 733.433594 C 97.902344 733.863281 97.574219 734.308594 97.265625 734.773438 C 96.960938 735.234375 96.675781 735.710938 96.414062 736.203125 C 96.15625 736.691406 95.921875 737.195312 95.710938 737.707031 C 95.5 738.21875 95.3125 738.742188 95.152344 739.273438 C 94.992188 739.804688 94.859375 740.34375 94.753906 740.890625 C 94.648438 741.433594 94.566406 741.984375 94.515625 742.535156 C 94.460938 743.089844 94.4375 743.640625 94.4375 744.195312 C 94.4375 744.753906 94.46875 745.304688 94.523438 745.859375 C 94.578125 746.410156 94.660156 746.960938 94.773438 747.503906 C 94.882812 748.046875 95.015625 748.585938 95.179688 749.117188 C 95.34375 749.648438 95.53125 750.167969 95.742188 750.679688 C 95.957031 751.191406 96.195312 751.695312 96.457031 752.183594 C 96.722656 752.671875 97.007812 753.144531 97.316406 753.605469 C 97.625 754.066406 97.957031 754.511719 98.3125 754.941406 C 98.664062 755.367188 99.039062 755.777344 99.429688 756.171875 C 99.824219 756.5625 100.234375 756.933594 100.664062 757.285156 C 101.09375 757.636719 101.542969 757.964844 102.003906 758.273438 C 102.464844 758.578125 102.941406 758.863281 103.433594 759.125 C 103.921875 759.386719 104.425781 759.621094 104.9375 759.832031 C 105.449219 760.042969 105.972656 760.230469 106.503906 760.390625 C 107.035156 760.550781 107.574219 760.683594 108.117188 760.789062 C 108.664062 760.898438 109.210938 760.976562 109.765625 761.03125 C 110.316406 761.085938 110.871094 761.109375 111.425781 761.109375 C 111.980469 761.109375 112.535156 761.078125 113.085938 761.023438 C 113.636719 760.96875 114.1875 760.886719 114.730469 760.777344 C 115.273438 760.667969 115.8125 760.53125 116.34375 760.371094 C 116.875 760.207031 117.394531 760.019531 117.90625 759.804688 C 118.421875 759.59375 118.921875 759.355469 119.410156 759.09375 C 119.898438 758.828125 120.375 758.542969 120.835938 758.234375 C 121.296875 757.925781 121.738281 757.59375 122.167969 757.242188 C 122.597656 756.890625 123.007812 756.515625 123.398438 756.121094 L 218.050781 661.4375 L 345.109375 534.363281 L 402.878906 592.144531 C 404.3125 593.566406 405.96875 594.660156 407.839844 595.417969 C 408.136719 595.992188 408.46875 596.546875 408.828125 597.082031 C 409.191406 597.617188 409.582031 598.128906 410.003906 598.617188 C 410.425781 599.105469 410.875 599.570312 411.351562 600.007812 C 411.828125 600.441406 412.328125 600.847656 412.855469 601.226562 C 413.378906 601.605469 413.921875 601.949219 414.488281 602.261719 C 415.050781 602.574219 415.632812 602.855469 416.230469 603.097656 C 416.828125 603.34375 417.441406 603.550781 418.0625 603.726562 C 418.683594 603.898438 419.316406 604.035156 419.953125 604.132812 C 420.59375 604.230469 421.234375 604.292969 421.878906 604.316406 C 422.523438 604.339844 423.167969 604.324219 423.8125 604.269531 C 424.457031 604.21875 425.097656 604.128906 425.730469 604 C 426.363281 603.871094 426.984375 603.707031 427.597656 603.503906 C 428.214844 603.304688 428.8125 603.066406 429.398438 602.792969 C 429.984375 602.523438 430.554688 602.21875 431.101562 601.878906 C 431.652344 601.539062 432.179688 601.167969 432.6875 600.769531 C 433.195312 600.367188 433.675781 599.9375 434.128906 599.480469 L 479.148438 554.449219 C 490.546875 542.941406 501.980469 531.503906 513.449219 520.144531 C 573.625 459.878906 633.800781 399.6875 693.976562 339.574219 L 693.976562 403.902344 C 693.976562 404.457031 694.003906 405.011719 694.058594 405.5625 C 694.113281 406.113281 694.195312 406.660156 694.300781 407.203125 C 694.410156 407.75 694.542969 408.285156 694.707031 408.816406 C 694.867188 409.347656 695.050781 409.867188 695.265625 410.378906 C 695.476562 410.894531 695.714844 411.394531 695.976562 411.882812 C 696.234375 412.371094 696.519531 412.847656 696.828125 413.308594 C 697.136719 413.769531 697.464844 414.214844 697.816406 414.640625 C 698.167969 415.070312 698.542969 415.480469 698.933594 415.871094 C 699.324219 416.265625 699.734375 416.636719 700.164062 416.988281 C 700.59375 417.339844 701.039062 417.667969 701.5 417.976562 C 701.960938 418.285156 702.433594 418.570312 702.921875 418.832031 C 703.410156 419.09375 703.910156 419.328125 704.425781 419.542969 C 704.9375 419.753906 705.457031 419.941406 705.988281 420.101562 C 706.519531 420.261719 707.054688 420.398438 707.597656 420.503906 C 708.144531 420.613281 708.691406 420.695312 709.242188 420.75 C 709.792969 420.804688 710.347656 420.832031 710.902344 420.832031 C 711.457031 420.832031 712.007812 420.804688 712.558594 420.75 C 713.113281 420.695312 713.660156 420.613281 714.203125 420.503906 C 714.746094 420.398438 715.285156 420.261719 715.8125 420.101562 C 716.34375 419.941406 716.867188 419.753906 717.378906 419.542969 C 717.890625 419.328125 718.390625 419.09375 718.878906 418.832031 C 719.367188 418.570312 719.84375 418.285156 720.304688 417.976562 C 720.765625 417.667969 721.210938 417.339844 721.636719 416.988281 C 722.066406 416.636719 722.476562 416.265625 722.867188 415.871094 C 723.261719 415.480469 723.632812 415.070312 723.984375 414.640625 C 724.335938 414.214844 724.664062 413.769531 724.972656 413.308594 C 725.28125 412.847656 725.566406 412.371094 725.828125 411.882812 C 726.089844 411.394531 726.324219 410.894531 726.535156 410.378906 C 726.75 409.867188 726.9375 409.347656 727.097656 408.816406 C 727.257812 408.285156 727.390625 407.75 727.5 407.203125 C 727.609375 406.660156 727.6875 406.113281 727.742188 405.5625 C 727.796875 405.011719 727.824219 404.457031 727.824219 403.902344 L 727.824219 298.722656 C 727.792969 297.289062 727.59375 295.882812 727.214844 294.503906 C 726.839844 293.121094 726.304688 291.804688 725.605469 290.558594 C 724.90625 289.308594 724.066406 288.160156 723.089844 287.117188 C 722.109375 286.074219 721.015625 285.164062 719.8125 284.390625 Z M 719.8125 284.390625 " fill-opacity="1" fill-rule="nonzero"/></svg>