<svg xmlns="http://www.w3.org/2000/svg" xmlns:xlink="http://www.w3.org/1999/xlink" width="1080" zoomAndPan="magnify" viewBox="0 0 810 809.999993" height="1080" preserveAspectRatio="xMidYMid meet" version="1.0"><path fill="#3243c2" d="M 651.859375 691.515625 C 650.421875 687.078125 648.675781 682.765625 646.625 678.578125 C 644.574219 674.390625 642.238281 670.371094 639.613281 666.515625 C 636.988281 662.660156 634.101562 659.011719 630.957031 655.566406 C 627.8125 652.125 624.4375 648.921875 620.835938 645.960938 C 610.570312 637.984375 604.015625 641.261719 578.019531 628.152344 C 573.214844 625.746094 569.390625 623.5625 566.878906 622.140625 C 557.703125 605.644531 548.855469 589.804688 540.226562 574.289062 C 543.910156 571.996094 547.53125 569.617188 551.097656 567.148438 C 554.667969 564.683594 558.171875 562.132812 561.617188 559.496094 C 565.0625 556.863281 568.445312 554.148438 571.761719 551.355469 C 575.078125 548.558594 578.324219 545.6875 581.503906 542.738281 C 584.683594 539.789062 587.792969 536.765625 590.828125 533.667969 C 593.863281 530.570312 596.824219 527.402344 599.710938 524.164062 C 602.59375 520.925781 605.402344 517.617188 608.128906 514.246094 C 610.855469 510.875 613.5 507.4375 616.066406 503.941406 C 618.628906 500.441406 621.109375 496.886719 623.503906 493.269531 C 625.898438 489.652344 628.207031 485.980469 630.425781 482.253906 C 632.644531 478.527344 634.773438 474.75 636.816406 470.925781 C 638.855469 467.097656 640.804688 463.222656 642.660156 459.300781 C 644.515625 455.382812 646.277344 451.417969 647.941406 447.414062 C 649.609375 443.410156 651.179688 439.367188 652.65625 435.289062 C 654.128906 431.210938 655.507812 427.097656 656.785156 422.953125 C 658.0625 418.808594 659.242188 414.636719 660.324219 410.433594 C 661.402344 406.234375 662.382812 402.011719 663.261719 397.761719 C 664.140625 393.515625 664.917969 389.25 665.59375 384.964844 C 666.269531 380.679688 666.84375 376.382812 667.316406 372.070312 C 667.785156 367.757812 668.15625 363.4375 668.421875 359.109375 C 668.6875 354.777344 668.847656 350.445312 668.910156 346.109375 C 668.96875 341.769531 668.921875 337.433594 668.777344 333.097656 C 668.628906 328.765625 668.378906 324.433594 668.027344 320.113281 C 667.671875 315.789062 667.21875 311.476562 666.660156 307.175781 C 666.101562 302.875 665.441406 298.585938 664.675781 294.316406 C 663.914062 290.046875 663.050781 285.796875 662.085938 281.570312 C 661.121094 277.339844 660.054688 273.136719 658.890625 268.957031 C 657.726562 264.78125 656.460938 260.632812 655.101562 256.515625 C 653.738281 252.394531 652.277344 248.3125 650.722656 244.265625 C 649.164062 240.214844 647.511719 236.207031 645.765625 232.238281 C 644.015625 228.269531 642.175781 224.339844 640.242188 220.460938 C 638.304688 216.578125 636.28125 212.742188 634.164062 208.957031 C 559.199219 71.195312 388.621094 24.894531 250.632812 103.640625 C 246.679688 105.9375 242.785156 108.332031 238.949219 110.824219 C 235.113281 113.316406 231.34375 115.902344 227.636719 118.582031 C 223.933594 121.261719 220.296875 124.035156 216.730469 126.898438 C 213.160156 129.761719 209.667969 132.710938 206.25 135.75 C 202.832031 138.785156 199.488281 141.90625 196.226562 145.113281 C 192.964844 148.316406 189.78125 151.601562 186.683594 154.964844 C 183.585938 158.332031 180.574219 161.769531 177.644531 165.285156 C 174.71875 168.800781 171.882812 172.386719 169.136719 176.042969 C 166.390625 179.699219 163.734375 183.425781 161.175781 187.214844 C 158.613281 191.003906 156.148438 194.855469 153.78125 198.769531 C 151.414062 202.683594 149.144531 206.652344 146.976562 210.679688 C 144.808594 214.707031 142.742188 218.785156 140.777344 222.917969 C 138.8125 227.046875 136.949219 231.222656 135.195312 235.449219 C 133.4375 239.671875 131.789062 243.9375 130.246094 248.242188 C 128.703125 252.546875 127.269531 256.890625 125.945312 261.269531 C 124.621094 265.648438 123.40625 270.054688 122.300781 274.492188 C 121.199219 278.933594 120.203125 283.398438 119.324219 287.886719 C 118.441406 292.375 117.675781 296.882812 117.019531 301.410156 C 116.363281 305.9375 115.820312 310.476562 115.394531 315.03125 C 114.964844 319.585938 114.652344 324.144531 114.453125 328.714844 C 114.253906 333.285156 114.167969 337.859375 114.195312 342.433594 C 114.226562 347.007812 114.367188 351.578125 114.625 356.144531 C 114.882812 360.710938 115.257812 365.269531 115.742188 369.816406 C 116.226562 374.363281 116.828125 378.898438 117.539062 383.417969 C 118.253906 387.933594 119.078125 392.433594 120.015625 396.910156 C 120.953125 401.386719 122.003906 405.835938 123.164062 410.261719 C 124.324219 414.6875 125.597656 419.078125 126.976562 423.441406 C 128.359375 427.800781 129.847656 432.125 131.445312 436.410156 C 133.039062 440.695312 134.742188 444.941406 136.554688 449.140625 C 138.363281 453.34375 140.277344 457.496094 142.292969 461.601562 C 144.3125 465.707031 146.429688 469.757812 148.648438 473.757812 C 150.871094 477.753906 153.1875 481.695312 155.605469 485.578125 C 235.125 616.242188 397.214844 647.378906 505.132812 592.425781 C 505.554688 592.078125 505.917969 591.675781 506.226562 591.226562 C 514.855469 607.613281 523.375 623.890625 531.894531 640.277344 C 532.222656 642.125 532.296875 643.984375 532.113281 645.851562 C 531.8125 649.160156 530.972656 652.328125 529.601562 655.355469 C 524.769531 667.902344 520.980469 680.757812 518.242188 693.917969 C 517.578125 696.789062 517.378906 699.6875 517.640625 702.617188 C 517.902344 705.546875 518.613281 708.367188 519.769531 711.070312 C 529.820312 731.066406 540.304688 750.839844 552.210938 769.738281 C 556.359375 776.402344 565.863281 785.144531 571.214844 784.160156 C 577.660156 782.957031 583.996094 773.015625 587.382812 765.480469 C 592.050781 753.265625 595.949219 740.8125 599.070312 728.117188 C 617.417969 732.59375 633.039062 737.292969 648.984375 739.914062 C 664.058594 742.425781 671.378906 732.375 665.371094 718.5 C 661.4375 709.214844 655.210938 700.910156 651.859375 691.515625 Z M 475.675781 353.605469 C 474.117188 361.601562 471.609375 369.289062 468.15625 376.664062 C 464.699219 384.039062 460.398438 390.882812 455.25 397.195312 C 452.835938 400.675781 450.214844 403.988281 447.386719 407.136719 C 440.503906 394.683594 434.824219 384.304688 430.34375 376.109375 C 448.367188 352.292969 448.039062 325.308594 430.5625 306.628906 C 429.53125 305.472656 428.449219 304.367188 427.316406 303.3125 C 426.1875 302.253906 425.011719 301.25 423.792969 300.296875 C 422.570312 299.34375 421.3125 298.445312 420.011719 297.605469 C 418.710938 296.761719 417.378906 295.980469 416.007812 295.257812 C 414.640625 294.535156 413.242188 293.875 411.8125 293.277344 C 410.386719 292.675781 408.933594 292.140625 407.460938 291.671875 C 405.984375 291.203125 404.492188 290.800781 402.980469 290.460938 C 401.46875 290.125 399.945312 289.855469 398.410156 289.652344 C 396.875 289.449219 395.335938 289.316406 393.789062 289.25 C 392.242188 289.1875 390.695312 289.191406 389.148438 289.261719 C 387.601562 289.332031 386.0625 289.472656 384.527344 289.683594 C 382.996094 289.890625 381.472656 290.167969 379.964844 290.511719 C 378.453125 290.855469 376.960938 291.265625 375.488281 291.742188 C 374.015625 292.21875 372.566406 292.757812 371.140625 293.363281 C 369.714844 293.96875 368.320312 294.632812 366.957031 295.363281 C 365.589844 296.089844 364.257812 296.878906 362.960938 297.726562 C 361.664062 298.574219 360.410156 299.476562 359.195312 300.433594 C 357.976562 301.390625 356.804688 302.402344 355.679688 303.464844 C 354.554688 304.527344 353.476562 305.636719 352.449219 306.792969 C 351.421875 307.953125 350.445312 309.152344 349.523438 310.398438 C 348.605469 311.640625 347.738281 312.925781 346.933594 314.246094 C 346.125 315.566406 345.378906 316.921875 344.691406 318.308594 C 344.003906 319.695312 343.378906 321.113281 342.816406 322.554688 C 342.253906 323.996094 341.757812 325.460938 341.324219 326.949219 C 340.894531 328.4375 340.527344 329.941406 340.230469 331.460938 C 339.933594 332.980469 339.703125 334.507812 339.539062 336.046875 C 339.375 337.589844 339.28125 339.132812 339.257812 340.679688 C 339.230469 342.230469 339.273438 343.773438 339.386719 345.320312 C 339.496094 346.863281 339.675781 348.398438 339.925781 349.929688 C 340.171875 351.457031 340.488281 352.972656 340.871094 354.472656 C 341.253906 355.972656 341.699219 357.453125 342.214844 358.914062 C 342.726562 360.375 343.304688 361.808594 343.945312 363.21875 C 344.53125 364.53125 345.171875 365.816406 345.871094 367.074219 C 346.566406 368.328125 347.320312 369.554688 348.125 370.742188 C 348.929688 371.933594 349.785156 373.085938 350.691406 374.199219 C 351.601562 375.316406 352.554688 376.386719 353.554688 377.417969 C 354.558594 378.449219 355.601562 379.433594 356.691406 380.371094 C 357.777344 381.3125 358.90625 382.199219 360.070312 383.039062 C 361.238281 383.878906 362.4375 384.664062 363.675781 385.398438 C 364.910156 386.132812 366.175781 386.808594 367.472656 387.429688 C 368.765625 388.050781 370.085938 388.617188 371.433594 389.121094 C 372.777344 389.625 374.140625 390.070312 375.527344 390.457031 C 376.910156 390.84375 378.308594 391.167969 379.722656 391.429688 C 381.132812 391.691406 382.554688 391.890625 383.984375 392.027344 C 385.417969 392.164062 386.851562 392.234375 388.285156 392.246094 C 389.722656 392.257812 391.160156 392.203125 392.589844 392.089844 C 394.023438 391.972656 395.445312 391.792969 396.863281 391.550781 C 398.28125 391.308594 399.683594 391.007812 401.074219 390.640625 C 401.074219 390.75 401.183594 390.75 401.183594 390.859375 L 417.894531 422.652344 C 412.976562 423.089844 406.972656 423.851562 399.542969 424.835938 C 398.140625 424.984375 396.730469 425.09375 395.324219 425.171875 C 393.914062 425.246094 392.5 425.285156 391.089844 425.292969 C 389.679688 425.296875 388.265625 425.265625 386.855469 425.199219 C 385.445312 425.128906 384.039062 425.027344 382.632812 424.890625 C 381.230469 424.75 379.828125 424.578125 378.433594 424.371094 C 377.035156 424.160156 375.644531 423.917969 374.261719 423.636719 C 372.878906 423.359375 371.503906 423.042969 370.132812 422.695312 C 368.765625 422.34375 367.40625 421.960938 366.058594 421.542969 C 364.710938 421.128906 363.375 420.675781 362.046875 420.191406 C 360.722656 419.703125 359.410156 419.1875 358.109375 418.632812 C 356.808594 418.082031 355.527344 417.5 354.253906 416.882812 C 352.984375 416.265625 351.730469 415.617188 350.496094 414.9375 C 349.257812 414.257812 348.039062 413.546875 346.835938 412.804688 C 345.636719 412.0625 344.453125 411.289062 343.292969 410.488281 C 342.128906 409.6875 340.988281 408.855469 339.867188 407.996094 C 338.746094 407.136719 337.648438 406.25 336.574219 405.335938 C 335.5 404.421875 334.449219 403.480469 333.417969 402.511719 C 332.390625 401.542969 331.390625 400.550781 330.410156 399.53125 C 329.433594 398.511719 328.484375 397.46875 327.558594 396.402344 C 326.632812 395.335938 325.734375 394.246094 324.867188 393.132812 C 323.996094 392.019531 323.15625 390.886719 322.34375 389.734375 C 321.53125 388.578125 320.75 387.402344 319.996094 386.207031 C 319.242188 385.015625 318.519531 383.800781 317.828125 382.570312 C 317.136719 381.339844 316.476562 380.089844 315.847656 378.828125 C 315.21875 377.5625 314.625 376.28125 314.058594 374.988281 C 313.496094 373.695312 312.964844 372.386719 312.46875 371.0625 C 311.96875 369.742188 311.503906 368.410156 311.074219 367.066406 C 310.644531 365.71875 310.25 364.363281 309.886719 363 C 309.527344 361.636719 309.199219 360.261719 308.90625 358.878906 C 308.613281 357.5 308.355469 356.109375 308.132812 354.714844 C 307.914062 353.320312 307.726562 351.921875 307.574219 350.519531 C 307.421875 349.113281 307.308594 347.707031 307.226562 346.296875 C 307.148438 344.886719 307.101562 343.476562 307.09375 342.066406 C 307.085938 340.652344 307.113281 339.242188 307.175781 337.832031 C 307.238281 336.421875 307.335938 335.011719 307.46875 333.605469 C 307.601562 332.199219 307.769531 330.800781 307.976562 329.402344 C 308.179688 328.003906 308.421875 326.613281 308.695312 325.230469 C 308.96875 323.84375 309.28125 322.464844 309.625 321.097656 C 309.96875 319.726562 310.347656 318.367188 310.761719 317.019531 C 311.175781 315.667969 311.621094 314.328125 312.101562 313 C 312.585938 311.671875 313.097656 310.359375 313.644531 309.058594 C 314.195312 307.757812 314.773438 306.46875 315.386719 305.195312 C 316 303.925781 316.644531 302.667969 317.320312 301.429688 C 317.996094 300.191406 318.703125 298.96875 319.441406 297.765625 C 320.179688 296.558594 320.945312 295.375 321.746094 294.210938 C 322.542969 293.046875 323.371094 291.902344 324.226562 290.777344 C 325.082031 289.65625 325.964844 288.554688 326.875 287.476562 C 327.785156 286.398438 328.726562 285.34375 329.691406 284.3125 C 330.652344 283.28125 331.644531 282.273438 332.660156 281.292969 C 333.675781 280.3125 334.714844 279.359375 335.777344 278.429688 C 336.84375 277.503906 337.929688 276.601562 339.039062 275.726562 C 340.148438 274.855469 341.277344 274.011719 342.429688 273.195312 C 343.582031 272.378906 344.753906 271.589844 345.945312 270.835938 C 347.140625 270.078125 348.347656 269.351562 349.578125 268.65625 C 350.804688 267.960938 352.050781 267.296875 353.3125 266.664062 C 354.578125 266.03125 355.855469 265.429688 357.144531 264.863281 C 358.4375 264.292969 359.746094 263.761719 361.0625 263.257812 C 362.382812 262.757812 363.714844 262.289062 365.058594 261.851562 C 366.402344 261.417969 367.753906 261.019531 369.117188 260.652344 C 370.484375 260.285156 371.855469 259.953125 373.234375 259.660156 C 374.613281 259.363281 376 259.101562 377.394531 258.875 C 378.789062 258.648438 380.1875 258.457031 381.589844 258.300781 C 382.992188 258.144531 384.398438 258.023438 385.808594 257.941406 C 387.21875 257.855469 388.628906 257.804688 390.039062 257.792969 C 392.035156 257.699219 394.035156 257.679688 396.03125 257.738281 C 398.03125 257.792969 400.023438 257.921875 402.011719 258.125 C 404 258.332031 405.976562 258.609375 407.945312 258.960938 C 409.914062 259.3125 411.863281 259.738281 413.800781 260.234375 C 415.738281 260.734375 417.652344 261.300781 419.546875 261.941406 C 421.4375 262.582031 423.304688 263.292969 425.144531 264.074219 C 426.988281 264.851562 428.796875 265.699219 430.574219 266.613281 C 432.351562 267.527344 434.089844 268.507812 435.796875 269.554688 C 437.5 270.597656 439.164062 271.703125 440.785156 272.871094 C 442.40625 274.042969 443.980469 275.269531 445.511719 276.554688 C 447.042969 277.839844 448.523438 279.183594 449.953125 280.578125 C 451.382812 281.976562 452.757812 283.425781 454.082031 284.921875 C 455.402344 286.421875 456.667969 287.96875 457.875 289.5625 C 459.082031 291.15625 460.226562 292.792969 461.3125 294.472656 C 462.398438 296.152344 463.417969 297.867188 464.375 299.625 C 465.332031 301.378906 466.222656 303.167969 467.046875 304.988281 C 468.90625 308.730469 470.492188 312.585938 471.800781 316.550781 C 473.109375 320.519531 474.125 324.5625 474.851562 328.675781 C 475.582031 332.792969 476.011719 336.9375 476.140625 341.113281 C 476.273438 345.289062 476.109375 349.453125 475.640625 353.605469 Z M 499.921875 501.75 C 494.132812 491.589844 488.671875 481.757812 483.539062 472.46875 C 550.496094 430.953125 572.667969 334.921875 532.472656 263.910156 C 531.199219 261.625 529.871094 259.375 528.488281 257.152344 C 527.105469 254.933594 525.671875 252.746094 524.179688 250.597656 C 522.691406 248.445312 521.152344 246.332031 519.5625 244.257812 C 517.96875 242.179688 516.328125 240.144531 514.640625 238.148438 C 512.949219 236.152344 511.210938 234.195312 509.425781 232.285156 C 507.644531 230.371094 505.8125 228.503906 503.9375 226.679688 C 502.0625 224.855469 500.144531 223.082031 498.183594 221.351562 C 496.222656 219.621094 494.21875 217.9375 492.175781 216.304688 C 490.132812 214.671875 488.050781 213.089844 485.933594 211.554688 C 483.8125 210.023438 481.65625 208.542969 479.464844 207.117188 C 477.273438 205.6875 475.046875 204.316406 472.789062 202.996094 C 470.53125 201.675781 468.242188 200.410156 465.925781 199.203125 C 463.605469 197.992188 461.257812 196.839844 458.882812 195.746094 C 456.507812 194.652344 454.105469 193.613281 451.679688 192.636719 C 449.253906 191.65625 446.808594 190.738281 444.335938 189.878906 C 441.867188 189.019531 439.378906 188.21875 436.871094 187.480469 C 434.359375 186.742188 431.835938 186.066406 429.292969 185.449219 C 426.75 184.832031 424.195312 184.277344 421.628906 183.785156 C 419.058594 183.292969 416.480469 182.863281 413.890625 182.496094 C 411.300781 182.128906 408.703125 181.824219 406.101562 181.582031 C 403.496094 181.339844 400.886719 181.160156 398.273438 181.046875 C 395.660156 180.933594 393.046875 180.878906 390.433594 180.894531 C 387.816406 180.90625 385.203125 180.980469 382.59375 181.117188 C 379.980469 181.257812 377.375 181.460938 374.769531 181.726562 C 372.167969 181.988281 369.574219 182.316406 366.988281 182.707031 C 364.402344 183.101562 361.828125 183.554688 359.265625 184.070312 C 356.699219 184.585938 354.152344 185.164062 351.613281 185.800781 C 349.078125 186.441406 346.558594 187.144531 344.058594 187.90625 C 341.554688 188.667969 339.074219 189.488281 336.609375 190.371094 C 334.148438 191.253906 331.710938 192.195312 329.292969 193.195312 C 326.875 194.195312 324.484375 195.253906 322.121094 196.371094 C 319.753906 197.488281 317.417969 198.660156 315.109375 199.890625 C 312.816406 201.113281 310.554688 202.390625 308.324219 203.722656 C 306.09375 205.054688 303.894531 206.4375 301.730469 207.878906 C 299.566406 209.316406 297.441406 210.808594 295.347656 212.351562 C 293.257812 213.894531 291.207031 215.488281 289.191406 217.132812 C 287.179688 218.773438 285.207031 220.464844 283.277344 222.207031 C 281.347656 223.945312 279.457031 225.730469 277.613281 227.5625 C 275.769531 229.394531 273.972656 231.269531 272.222656 233.1875 C 270.46875 235.105469 268.765625 237.066406 267.105469 239.070312 C 265.449219 241.074219 263.84375 243.113281 262.285156 245.195312 C 260.730469 247.273438 259.222656 249.394531 257.769531 251.546875 C 256.316406 253.699219 254.914062 255.890625 253.566406 258.113281 C 252.21875 260.332031 250.929688 262.585938 249.691406 264.875 C 248.453125 267.160156 247.273438 269.472656 246.148438 271.816406 C 245.023438 274.160156 243.957031 276.527344 242.945312 278.921875 C 241.9375 281.316406 240.988281 283.738281 240.097656 286.179688 C 239.207031 288.621094 238.375 291.082031 237.601562 293.5625 C 236.832031 296.042969 236.121094 298.542969 235.472656 301.0625 C 234.824219 303.578125 234.234375 306.109375 233.710938 308.652344 C 233.183594 311.199219 232.71875 313.753906 232.320312 316.324219 C 231.917969 318.890625 231.578125 321.46875 231.304688 324.050781 C 231.027344 326.636719 230.816406 329.226562 230.664062 331.820312 C 230.515625 334.414062 230.429688 337.011719 230.40625 339.609375 C 230.382812 342.210938 230.425781 344.808594 230.527344 347.40625 C 230.632812 350 230.796875 352.59375 231.027344 355.183594 C 231.257812 357.773438 231.550781 360.355469 231.910156 362.929688 C 232.265625 365.503906 232.683594 368.066406 233.164062 370.621094 C 233.644531 373.175781 234.1875 375.714844 234.792969 378.246094 C 235.398438 380.773438 236.0625 383.28125 236.792969 385.777344 C 237.519531 388.273438 238.308594 390.75 239.15625 393.207031 C 240.003906 395.664062 240.910156 398.097656 241.878906 400.511719 C 242.84375 402.921875 243.871094 405.308594 244.953125 407.671875 C 246.035156 410.035156 247.175781 412.371094 248.371094 414.675781 C 285.945312 487.65625 379.992188 523.160156 452.628906 488.964844 C 458.199219 499.671875 463.878906 510.269531 469.449219 520.976562 C 468.355469 520.867188 467.265625 520.757812 466.171875 520.757812 C 350.828125 562.820312 247.71875 501.3125 211.890625 412.164062 C 210.84375 409.476562 209.855469 406.765625 208.929688 404.03125 C 208.003906 401.300781 207.136719 398.550781 206.335938 395.777344 C 205.53125 393.007812 204.792969 390.21875 204.113281 387.414062 C 203.433594 384.609375 202.820312 381.792969 202.269531 378.960938 C 201.714844 376.128906 201.230469 373.285156 200.804688 370.429688 C 200.378906 367.578125 200.019531 364.714844 199.722656 361.847656 C 199.429688 358.976562 199.195312 356.101562 199.03125 353.21875 C 198.863281 350.339844 198.761719 347.457031 198.722656 344.574219 C 198.683594 341.6875 198.710938 338.804688 198.804688 335.917969 C 198.894531 333.035156 199.050781 330.15625 199.269531 327.277344 C 199.492188 324.402344 199.777344 321.53125 200.125 318.667969 C 200.476562 315.804688 200.890625 312.949219 201.367188 310.101562 C 201.84375 307.257812 202.386719 304.425781 202.988281 301.605469 C 203.59375 298.78125 204.261719 295.976562 204.992188 293.183594 C 205.722656 290.394531 206.515625 287.621094 207.367188 284.863281 C 208.222656 282.109375 209.140625 279.375 210.117188 276.660156 C 211.09375 273.945312 212.132812 271.253906 213.230469 268.585938 C 214.328125 265.917969 215.484375 263.277344 216.699219 260.660156 C 217.917969 258.042969 219.191406 255.457031 220.523438 252.898438 C 221.855469 250.335938 223.246094 247.808594 224.691406 245.3125 C 226.136719 242.816406 227.636719 240.355469 229.195312 237.925781 C 230.75 235.496094 232.359375 233.101562 234.023438 230.746094 C 235.6875 228.386719 237.402344 226.070312 239.171875 223.789062 C 240.9375 221.507812 242.753906 219.269531 244.625 217.070312 C 246.492188 214.871094 248.40625 212.714844 250.371094 210.601562 C 252.335938 208.492188 254.347656 206.421875 256.40625 204.402344 C 258.460938 202.378906 260.5625 200.402344 262.707031 198.476562 C 264.855469 196.546875 267.042969 194.667969 269.273438 192.835938 C 271.503906 191.007812 273.773438 189.226562 276.082031 187.5 C 278.390625 185.773438 280.738281 184.097656 283.125 182.472656 C 285.507812 180.851562 287.929688 179.28125 290.386719 177.765625 C 292.839844 176.253906 295.328125 174.792969 297.847656 173.390625 C 300.371094 171.988281 302.921875 170.644531 305.5 169.355469 C 308.082031 168.066406 310.691406 166.835938 313.328125 165.664062 C 315.964844 164.492188 318.625 163.382812 321.3125 162.328125 C 323.996094 161.277344 326.703125 160.285156 329.433594 159.355469 C 332.164062 158.425781 334.914062 157.558594 337.683594 156.75 C 340.453125 155.941406 343.242188 155.199219 346.042969 154.515625 C 348.847656 153.832031 351.664062 153.214844 354.492188 152.660156 C 357.324219 152.101562 360.164062 151.609375 363.019531 151.183594 C 365.871094 150.753906 368.730469 150.390625 371.601562 150.089844 C 374.46875 149.789062 377.34375 149.554688 380.222656 149.382812 C 383.101562 149.210938 385.984375 149.105469 388.867188 149.0625 C 391.753906 149.023438 394.636719 149.046875 397.519531 149.132812 C 400.402344 149.21875 403.285156 149.371094 406.160156 149.589844 C 409.035156 149.804688 411.90625 150.085938 414.769531 150.433594 C 417.632812 150.777344 420.488281 151.1875 423.335938 151.660156 C 426.179688 152.132812 429.011719 152.671875 431.835938 153.273438 C 434.65625 153.871094 437.460938 154.535156 440.253906 155.261719 C 443.046875 155.988281 445.820312 156.777344 448.578125 157.628906 C 451.332031 158.480469 454.066406 159.390625 456.785156 160.367188 C 459.5 161.339844 462.191406 162.371094 464.859375 163.46875 C 467.53125 164.5625 470.171875 165.714844 472.789062 166.929688 C 475.40625 168.140625 477.996094 169.414062 480.554688 170.742188 C 483.117188 172.070312 485.644531 173.457031 488.144531 174.898438 C 490.640625 176.339844 493.105469 177.839844 495.539062 179.390625 C 497.96875 180.945312 500.363281 182.550781 502.722656 184.210938 C 505.082031 185.875 507.402344 187.585938 509.683594 189.351562 C 511.964844 191.113281 514.207031 192.929688 516.410156 194.796875 C 518.609375 196.660156 520.765625 198.574219 522.882812 200.535156 C 524.996094 202.496094 527.066406 204.507812 529.09375 206.5625 C 531.117188 208.617188 533.09375 210.714844 535.027344 212.859375 C 536.957031 215.003906 538.839844 217.1875 540.671875 219.414062 C 542.503906 221.644531 544.285156 223.910156 546.015625 226.21875 C 549.558594 230.816406 552.875 235.570312 555.972656 240.476562 C 559.066406 245.382812 561.929688 250.425781 564.554688 255.597656 C 567.179688 260.773438 569.554688 266.058594 571.6875 271.457031 C 573.816406 276.855469 575.691406 282.339844 577.308594 287.914062 C 578.925781 293.484375 580.28125 299.121094 581.371094 304.820312 C 582.460938 310.519531 583.285156 316.257812 583.839844 322.035156 C 584.394531 327.808594 584.679688 333.597656 584.691406 339.402344 C 584.703125 345.203125 584.445312 350.996094 583.917969 356.773438 C 583.675781 360.382812 583.328125 363.980469 582.878906 367.570312 C 582.429688 371.160156 581.878906 374.734375 581.222656 378.292969 C 580.570312 381.847656 579.8125 385.382812 578.957031 388.898438 C 578.101562 392.414062 577.144531 395.898438 576.085938 399.359375 C 575.03125 402.820312 573.878906 406.246094 572.625 409.640625 C 571.371094 413.03125 570.023438 416.386719 568.578125 419.703125 C 567.136719 423.019531 565.597656 426.292969 563.964844 429.519531 C 562.332031 432.746094 560.609375 435.925781 558.796875 439.054688 C 556.984375 442.183594 555.082031 445.261719 553.089844 448.28125 C 551.101562 451.300781 549.027344 454.261719 546.867188 457.164062 C 544.707031 460.066406 542.46875 462.902344 540.144531 465.675781 C 537.824219 468.449219 535.425781 471.152344 532.949219 473.789062 C 530.472656 476.425781 527.921875 478.988281 525.296875 481.480469 C 522.675781 483.96875 519.980469 486.382812 517.21875 488.71875 C 514.457031 491.050781 511.632812 493.308594 508.742188 495.480469 C 505.851562 497.65625 502.902344 499.742188 499.890625 501.75 Z M 499.921875 501.75 " fill-opacity="1" fill-rule="nonzero"/></svg>