<svg xmlns="http://www.w3.org/2000/svg" xmlns:xlink="http://www.w3.org/1999/xlink" width="1080" zoomAndPan="magnify" viewBox="0 0 810 809.999993" height="1080" preserveAspectRatio="xMidYMid meet" version="1.0"><path fill="#b10f2e" d="M 620.078125 554.160156 C 623.75 563.433594 622.921875 566.09375 622.582031 566.976562 C 622.152344 568.003906 621.554688 568.925781 620.796875 569.746094 C 620.039062 570.566406 619.167969 571.230469 618.175781 571.742188 C 612.457031 570.402344 604.90625 570.925781 601.3125 567.414062 C 594.570312 560.988281 587.371094 555.128906 579.710938 549.832031 C 572.054688 544.535156 564.03125 539.863281 555.644531 535.816406 C 547.253906 531.773438 538.605469 528.402344 529.691406 525.710938 C 520.777344 523.015625 511.707031 521.03125 502.484375 519.753906 C 438.410156 509.074219 376.675781 519.863281 316.203125 540.949219 C 302.714844 545.65625 289.550781 551.296875 274.804688 557.074219 L 203.964844 406.488281 C 238.632812 382.335938 273.648438 360.988281 305.113281 335.300781 C 350.519531 298.222656 385.953125 252.925781 399.023438 193.957031 C 401.769531 179.34375 402.894531 164.605469 402.402344 149.746094 C 402.402344 141.628906 399.664062 132.980469 409.566406 129.804688 C 420.808594 126.203125 423.410156 135.949219 426.921875 143.398438 C 463.277344 220.699219 499.636719 297.992188 536.003906 375.269531 C 563.085938 432.8125 590.179688 490.34375 617.292969 547.859375 C 618.339844 550.007812 618.972656 551.355469 620.078125 554.160156 Z M 286.816406 585.925781 C 292.53125 597.082031 301.378906 612.875 305.347656 620.613281 C 356.257812 604.914062 355.230469 592.722656 339.480469 562.558594 Z M 261.445312 594.664062 L 211.371094 618.351562 C 240.496094 663.574219 269.039062 707.503906 297.222656 751.644531 C 303.542969 761.539062 311.316406 766.703125 322.707031 761.644531 C 332.550781 757.277344 334.132812 747.277344 327.820312 733.832031 C 307.570312 690.679688 287.265625 647.535156 266.902344 604.390625 C 265.40625 601.199219 263.445312 598.226562 261.445312 594.710938 Z M 584.042969 52.34375 C 583.289062 51.035156 582.386719 49.84375 581.332031 48.765625 C 580.277344 47.6875 579.101562 46.757812 577.8125 45.976562 C 576.523438 45.195312 575.15625 44.585938 573.710938 44.148438 C 572.269531 43.714844 570.792969 43.464844 569.285156 43.402344 C 567.824219 43.386719 566.386719 43.554688 564.964844 43.902344 C 563.546875 44.25 562.195312 44.765625 560.90625 45.453125 C 559.617188 46.140625 558.433594 46.976562 557.351562 47.960938 C 556.273438 48.945312 555.332031 50.046875 554.527344 51.265625 C 545.207031 64.566406 536.019531 78.027344 526.957031 91.652344 C 526.117188 92.820312 525.445312 94.082031 524.941406 95.429688 C 524.441406 96.78125 524.125 98.171875 523.996094 99.605469 C 523.867188 101.042969 523.933594 102.46875 524.1875 103.886719 C 524.441406 105.304688 524.878906 106.660156 525.5 107.960938 C 525.953125 108.902344 526.488281 109.792969 527.109375 110.628906 C 527.730469 111.464844 528.429688 112.234375 529.199219 112.9375 C 529.972656 113.636719 530.804688 114.261719 531.695312 114.800781 C 532.589844 115.339844 533.523438 115.792969 534.503906 116.152344 C 535.480469 116.511719 536.488281 116.773438 537.515625 116.9375 C 538.546875 117.101562 539.582031 117.164062 540.625 117.128906 C 541.667969 117.09375 542.695312 116.957031 543.714844 116.722656 C 544.730469 116.484375 545.714844 116.15625 546.664062 115.726562 C 549.332031 114.355469 551.53125 112.445312 553.265625 110 C 562.488281 96.796875 572.292969 82.621094 581.515625 68.449219 C 583.152344 65.519531 584.058594 62.382812 584.234375 59.03125 C 584.332031 57.964844 584.527344 56.894531 584.722656 55.828125 L 585.109375 53.886719 Z M 727.820312 245.632812 C 727.65625 244.132812 727.304688 242.675781 726.773438 241.261719 C 726.242188 239.847656 725.542969 238.519531 724.679688 237.28125 C 723.8125 236.042969 722.808594 234.933594 721.664062 233.945312 C 720.519531 232.960938 719.269531 232.132812 717.917969 231.460938 C 716.609375 230.839844 715.246094 230.398438 713.824219 230.125 C 712.402344 229.855469 710.972656 229.765625 709.527344 229.859375 C 708.085938 229.953125 706.675781 230.226562 705.300781 230.675781 C 703.925781 231.128906 702.632812 231.746094 701.414062 232.527344 C 687.335938 240.78125 673.355469 249.324219 659.476562 257.964844 C 658.238281 258.695312 657.117188 259.574219 656.109375 260.601562 C 655.101562 261.628906 654.246094 262.769531 653.539062 264.023438 C 652.832031 265.273438 652.296875 266.597656 651.9375 267.988281 C 651.578125 269.382812 651.40625 270.796875 651.417969 272.234375 C 651.53125 275.003906 652.273438 277.59375 653.648438 280 C 654.347656 281.234375 655.195312 282.351562 656.191406 283.355469 C 657.191406 284.359375 658.308594 285.210938 659.539062 285.914062 C 660.769531 286.613281 662.070312 287.140625 663.445312 287.488281 C 664.820312 287.835938 666.214844 287.992188 667.628906 287.960938 C 670.625 287.917969 673.375 287.078125 675.882812 285.4375 C 689.859375 277.28125 704.617188 268.449219 718.890625 259.324219 C 721.5625 257.3125 723.667969 254.820312 725.199219 251.847656 C 725.78125 250.875 726.363281 250.003906 726.851562 249.128906 L 728.113281 247.574219 Z M 781.796875 503.96875 C 781.324219 502.601562 780.691406 501.316406 779.894531 500.105469 C 779.101562 498.898438 778.167969 497.808594 777.101562 496.832031 C 776.03125 495.859375 774.859375 495.027344 773.585938 494.347656 C 772.308594 493.664062 770.96875 493.152344 769.566406 492.804688 C 753.933594 488.339844 738.015625 484.261719 722.191406 480.183594 C 720.800781 479.804688 719.382812 479.609375 717.945312 479.597656 C 716.503906 479.585938 715.085938 479.757812 713.6875 480.113281 C 712.292969 480.472656 710.964844 481.003906 709.707031 481.707031 C 708.449219 482.40625 707.304688 483.261719 706.269531 484.261719 C 704.371094 486.277344 703.011719 488.609375 702.191406 491.25 C 701.785156 492.613281 701.570312 494.003906 701.539062 495.421875 C 701.511719 496.84375 701.671875 498.242188 702.023438 499.617188 C 702.375 500.992188 702.902344 502.296875 703.605469 503.53125 C 704.308594 504.761719 705.164062 505.878906 706.171875 506.882812 C 708.28125 508.957031 710.773438 510.347656 713.644531 511.054688 C 729.179688 515.425781 745.878906 519.988281 762.285156 523.96875 C 765.59375 524.472656 768.863281 524.28125 772.089844 523.386719 C 773.15625 523.09375 774.226562 522.902344 775.195312 522.707031 L 777.234375 522.511719 L 778.398438 520.863281 C 779.375 519.710938 780.191406 518.460938 780.847656 517.105469 C 781.503906 515.746094 781.980469 514.332031 782.277344 512.855469 C 782.574219 511.375 782.683594 509.886719 782.601562 508.382812 C 782.519531 506.875 782.253906 505.40625 781.796875 503.96875 Z M 177.226562 414.023438 C 150.441406 427.121094 124.125 437.867188 99.988281 452.261719 C 97.898438 453.578125 95.867188 454.984375 93.898438 456.476562 C 91.929688 457.972656 90.03125 459.550781 88.203125 461.214844 C 86.375 462.878906 84.625 464.621094 82.953125 466.4375 C 81.277344 468.257812 79.6875 470.148438 78.183594 472.109375 C 76.675781 474.066406 75.261719 476.089844 73.9375 478.175781 C 72.609375 480.261719 71.378906 482.402344 70.242188 484.597656 C 69.109375 486.792969 68.070312 489.035156 67.132812 491.320312 C 66.199219 493.609375 65.363281 495.933594 64.632812 498.292969 C 63.902344 500.65625 63.277344 503.042969 62.761719 505.460938 C 62.242188 507.878906 61.832031 510.3125 61.53125 512.765625 C 61.230469 515.21875 61.035156 517.679688 60.953125 520.152344 C 60.871094 522.621094 60.894531 525.089844 61.03125 527.558594 C 61.167969 530.027344 61.414062 532.484375 61.765625 534.929688 C 62.121094 537.375 62.582031 539.800781 63.152344 542.207031 C 63.722656 544.609375 64.398438 546.984375 65.175781 549.332031 C 65.957031 551.675781 66.839844 553.980469 67.828125 556.25 C 68.710938 558.558594 69.695312 560.828125 70.785156 563.046875 C 71.875 565.269531 73.066406 567.4375 74.351562 569.550781 C 75.640625 571.664062 77.019531 573.714844 78.492188 575.703125 C 79.964844 577.691406 81.527344 579.609375 83.175781 581.453125 C 84.824219 583.300781 86.550781 585.066406 88.359375 586.757812 C 90.167969 588.445312 92.050781 590.046875 94.003906 591.566406 C 95.960938 593.082031 97.980469 594.507812 100.0625 595.84375 C 102.148438 597.175781 104.289062 598.414062 106.484375 599.554688 C 108.679688 600.691406 110.925781 601.730469 113.214844 602.664062 C 115.507812 603.601562 117.835938 604.429688 120.203125 605.152344 C 122.570312 605.875 124.964844 606.492188 127.386719 606.996094 C 129.808594 607.5 132.25 607.898438 134.707031 608.179688 C 137.164062 608.464844 139.628906 608.636719 142.105469 608.695312 C 144.578125 608.753906 147.050781 608.699219 149.519531 608.535156 C 151.988281 608.371094 154.445312 608.09375 156.886719 607.703125 C 159.332031 607.316406 161.753906 606.816406 164.152344 606.207031 C 193.746094 595.925781 222.648438 583.980469 250.863281 570.363281 Z M 580.652344 321.707031 C 571.820312 304.234375 556.382812 298.582031 531.257812 305.4375 L 562.644531 371.996094 C 584.964844 355.871094 589.992188 340.152344 580.652344 321.707031 Z M 580.652344 321.707031 " fill-opacity="1" fill-rule="nonzero"/></svg>