<svg xmlns="http://www.w3.org/2000/svg" xmlns:xlink="http://www.w3.org/1999/xlink" width="1080" zoomAndPan="magnify" viewBox="0 0 810 809.999993" height="1080" preserveAspectRatio="xMidYMid meet" version="1.0"><path fill="#de7c5a" d="M 269.863281 224.1875 C 269.496094 185.542969 269.496094 146.886719 269.863281 108.230469 C 269.8125 106.769531 269.832031 105.3125 269.929688 103.859375 C 270.023438 102.402344 270.191406 100.957031 270.429688 99.519531 C 270.671875 98.078125 270.980469 96.65625 271.367188 95.25 C 271.75 93.84375 272.203125 92.457031 272.726562 91.097656 C 273.25 89.734375 273.839844 88.402344 274.496094 87.101562 C 275.15625 85.796875 275.875 84.53125 276.660156 83.304688 C 277.445312 82.074219 278.289062 80.886719 279.195312 79.742188 C 280.101562 78.597656 281.058594 77.503906 282.074219 76.457031 C 283.089844 75.410156 284.15625 74.414062 285.269531 73.476562 C 286.386719 72.535156 287.546875 71.652344 288.75 70.828125 C 289.953125 70.007812 291.195312 69.246094 292.476562 68.546875 C 293.757812 67.851562 295.070312 67.21875 296.414062 66.652344 C 297.757812 66.085938 299.128906 65.589844 300.523438 65.164062 C 301.917969 64.734375 303.332031 64.378906 304.761719 64.09375 C 306.191406 63.808594 307.632812 63.59375 309.085938 63.453125 C 310.535156 63.316406 311.992188 63.246094 313.449219 63.253906 C 314.910156 63.261719 316.363281 63.339844 317.8125 63.492188 C 319.265625 63.648438 320.703125 63.871094 322.132812 64.171875 C 323.558594 64.46875 324.96875 64.839844 326.359375 65.277344 C 327.75 65.71875 329.113281 66.226562 330.453125 66.804688 C 331.792969 67.382812 333.101562 68.027344 334.375 68.734375 C 335.648438 69.445312 336.882812 70.21875 338.082031 71.050781 C 339.277344 71.886719 340.429688 72.777344 341.535156 73.726562 C 342.644531 74.675781 343.699219 75.679688 344.703125 76.738281 C 345.710938 77.792969 346.660156 78.898438 347.554688 80.050781 C 348.449219 81.203125 349.285156 82.398438 350.058594 83.632812 C 350.832031 84.871094 351.539062 86.140625 352.1875 87.449219 C 352.832031 88.757812 353.410156 90.09375 353.921875 91.460938 C 354.433594 92.828125 354.875 94.214844 355.246094 95.625 C 355.617188 97.035156 355.914062 98.460938 356.140625 99.902344 C 356.371094 101.34375 356.523438 102.792969 356.605469 104.25 C 356.6875 105.703125 356.695312 107.160156 356.628906 108.617188 C 356.84375 127.941406 356.628906 147.265625 356.628906 166.597656 C 356.628906 185.550781 356.792969 204.546875 356.628906 223.480469 C 356.710938 224.945312 356.71875 226.40625 356.652344 227.871094 C 356.585938 229.335938 356.445312 230.792969 356.234375 232.246094 C 356.019531 233.695312 355.734375 235.132812 355.375 236.550781 C 355.015625 237.972656 354.585938 239.375 354.085938 240.75 C 353.582031 242.128906 353.015625 243.476562 352.378906 244.796875 C 351.738281 246.117188 351.039062 247.402344 350.269531 248.652344 C 349.503906 249.902344 348.671875 251.109375 347.785156 252.273438 C 346.894531 253.4375 345.949219 254.554688 344.945312 255.625 C 343.941406 256.695312 342.886719 257.710938 341.78125 258.675781 C 340.675781 259.636719 339.523438 260.539062 338.328125 261.386719 C 337.128906 262.234375 335.894531 263.015625 334.617188 263.738281 C 333.339844 264.457031 332.03125 265.113281 330.6875 265.699219 C 329.34375 266.289062 327.972656 266.808594 326.578125 267.257812 C 325.183594 267.707031 323.769531 268.085938 322.335938 268.390625 C 320.902344 268.699219 319.457031 268.929688 318 269.089844 C 316.539062 269.25 315.078125 269.335938 313.613281 269.347656 C 312.148438 269.359375 310.683594 269.296875 309.222656 269.160156 C 307.765625 269.027344 306.316406 268.816406 304.875 268.535156 C 303.4375 268.25 302.015625 267.894531 300.613281 267.46875 C 299.210938 267.042969 297.835938 266.546875 296.480469 265.980469 C 295.128906 265.414062 293.808594 264.78125 292.519531 264.082031 C 291.234375 263.378906 289.984375 262.617188 288.773438 261.792969 C 287.5625 260.964844 286.394531 260.078125 285.273438 259.132812 C 284.152344 258.191406 283.082031 257.191406 282.0625 256.140625 C 281.042969 255.085938 280.078125 253.984375 279.167969 252.832031 C 278.261719 251.683594 277.410156 250.488281 276.625 249.253906 C 275.835938 248.015625 275.113281 246.742188 274.453125 245.433594 C 273.796875 244.125 273.203125 242.785156 272.679688 241.414062 C 272.15625 240.046875 271.703125 238.652344 271.324219 237.238281 C 270.941406 235.824219 270.628906 234.390625 270.394531 232.945312 C 270.15625 231.5 269.992188 230.042969 269.902344 228.578125 C 269.8125 227.117188 269.796875 225.652344 269.855469 224.1875 Z M 194.097656 269.316406 C 195.53125 269.300781 196.964844 269.214844 198.394531 269.058594 C 199.820312 268.902344 201.238281 268.671875 202.644531 268.375 C 204.046875 268.078125 205.4375 267.707031 206.804688 267.273438 C 208.171875 266.835938 209.515625 266.332031 210.835938 265.761719 C 212.152344 265.191406 213.441406 264.558594 214.695312 263.859375 C 215.953125 263.160156 217.167969 262.402344 218.347656 261.582031 C 219.527344 260.761719 220.664062 259.886719 221.757812 258.953125 C 222.851562 258.019531 223.894531 257.035156 224.886719 256 C 225.882812 254.960938 226.824219 253.878906 227.710938 252.746094 C 228.597656 251.617188 229.425781 250.445312 230.195312 249.234375 C 230.964844 248.019531 231.671875 246.773438 232.316406 245.488281 C 232.960938 244.203125 233.542969 242.894531 234.058594 241.550781 C 234.570312 240.210938 235.019531 238.847656 235.398438 237.460938 C 235.777344 236.074219 236.085938 234.675781 236.324219 233.257812 C 236.566406 231.839844 236.734375 230.417969 236.832031 228.984375 C 236.929688 227.550781 236.953125 226.117188 236.910156 224.679688 C 237.207031 205.367188 236.910156 186.042969 236.972656 166.722656 C 236.972656 147.027344 237.195312 127.335938 236.910156 107.652344 C 236.96875 106.21875 236.957031 104.785156 236.871094 103.351562 C 236.789062 101.917969 236.628906 100.492188 236.402344 99.078125 C 236.171875 97.660156 235.871094 96.257812 235.5 94.871094 C 235.128906 93.484375 234.6875 92.117188 234.179688 90.773438 C 233.671875 89.433594 233.09375 88.121094 232.453125 86.835938 C 231.808594 85.550781 231.105469 84.300781 230.335938 83.089844 C 229.566406 81.875 228.738281 80.707031 227.851562 79.578125 C 226.964844 78.449219 226.023438 77.367188 225.027344 76.332031 C 224.03125 75.300781 222.984375 74.320312 221.886719 73.390625 C 220.792969 72.464844 219.652344 71.59375 218.46875 70.78125 C 217.285156 69.96875 216.0625 69.21875 214.800781 68.527344 C 213.542969 67.839844 212.25 67.21875 210.925781 66.660156 C 209.605469 66.101562 208.257812 65.613281 206.882812 65.191406 C 205.511719 64.769531 204.121094 64.417969 202.710938 64.136719 C 201.304688 63.855469 199.886719 63.648438 198.457031 63.507812 C 197.027344 63.371094 195.59375 63.308594 194.15625 63.316406 C 192.699219 63.289062 191.242188 63.332031 189.789062 63.457031 C 188.332031 63.578125 186.886719 63.773438 185.453125 64.042969 C 184.019531 64.3125 182.601562 64.65625 181.203125 65.070312 C 179.804688 65.484375 178.429688 65.972656 177.082031 66.527344 C 175.730469 67.085938 174.414062 67.707031 173.128906 68.402344 C 171.84375 69.09375 170.597656 69.847656 169.390625 70.667969 C 168.183594 71.488281 167.023438 72.371094 165.90625 73.308594 C 164.789062 74.25 163.722656 75.242188 162.707031 76.292969 C 161.695312 77.339844 160.734375 78.4375 159.832031 79.585938 C 158.933594 80.734375 158.089844 81.925781 157.3125 83.160156 C 156.53125 84.394531 155.820312 85.664062 155.171875 86.972656 C 154.519531 88.277344 153.941406 89.617188 153.429688 90.984375 C 152.917969 92.351562 152.480469 93.738281 152.109375 95.152344 C 151.742188 96.5625 151.449219 97.992188 151.226562 99.433594 C 151.003906 100.875 150.855469 102.328125 150.785156 103.785156 C 150.710938 105.242188 150.714844 106.699219 150.792969 108.15625 C 150.601562 146.789062 150.601562 185.421875 150.792969 224.054688 C 150.726562 225.511719 150.730469 226.96875 150.8125 228.429688 C 150.894531 229.886719 151.050781 231.335938 151.277344 232.777344 C 151.503906 234.21875 151.804688 235.644531 152.175781 237.058594 C 152.550781 238.46875 152.992188 239.859375 153.503906 241.226562 C 154.019531 242.589844 154.597656 243.929688 155.246094 245.238281 C 155.894531 246.542969 156.609375 247.816406 157.386719 249.050781 C 158.164062 250.289062 159 251.480469 159.898438 252.632812 C 160.796875 253.785156 161.75 254.886719 162.757812 255.941406 C 163.769531 256.996094 164.828125 257.996094 165.941406 258.941406 C 167.050781 259.890625 168.207031 260.777344 169.40625 261.609375 C 170.609375 262.4375 171.847656 263.207031 173.125 263.910156 C 174.40625 264.617188 175.714844 265.253906 177.058594 265.828125 C 178.402344 266.398438 179.769531 266.902344 181.164062 267.335938 C 182.558594 267.769531 183.972656 268.128906 185.402344 268.421875 C 186.832031 268.710938 188.273438 268.929688 189.726562 269.074219 C 191.179688 269.21875 192.636719 269.289062 194.097656 269.285156 Z M 435.792969 268.445312 C 435.863281 267.171875 436.007812 266.761719 435.886719 266.464844 C 416.582031 219.355469 427.421875 187.488281 470.914062 162.699219 C 472.171875 161.898438 473.207031 160.871094 474.019531 159.617188 C 474.832031 158.363281 475.34375 157 475.558594 155.519531 C 475.816406 137.285156 476.359375 118.996094 475.136719 100.832031 C 474.972656 99.539062 474.75 98.257812 474.46875 96.984375 C 474.1875 95.710938 473.851562 94.453125 473.453125 93.210938 C 473.058594 91.96875 472.605469 90.746094 472.097656 89.542969 C 471.589844 88.34375 471.027344 87.167969 470.414062 86.015625 C 469.796875 84.867188 469.132812 83.746094 468.414062 82.65625 C 467.699219 81.570312 466.933594 80.515625 466.121094 79.496094 C 465.304688 78.476562 464.449219 77.496094 463.546875 76.554688 C 462.640625 75.613281 461.699219 74.714844 460.714844 73.859375 C 459.730469 73.003906 458.707031 72.195312 457.648438 71.433594 C 456.589844 70.671875 455.5 69.960938 454.375 69.300781 C 453.253906 68.636719 452.101562 68.027344 450.921875 67.46875 C 449.742188 66.914062 448.539062 66.410156 447.316406 65.964844 C 446.089844 65.515625 444.847656 65.125 443.585938 64.792969 C 442.324219 64.457031 441.054688 64.183594 439.765625 63.964844 C 438.480469 63.746094 437.1875 63.585938 435.886719 63.488281 C 434.585938 63.386719 433.285156 63.347656 431.980469 63.367188 C 430.675781 63.386719 429.375 63.464844 428.078125 63.601562 C 426.78125 63.738281 425.496094 63.933594 424.214844 64.191406 C 422.9375 64.445312 421.671875 64.757812 420.421875 65.128906 C 419.171875 65.5 417.941406 65.925781 416.730469 66.410156 C 415.519531 66.890625 414.332031 67.429688 413.167969 68.019531 C 412.003906 68.613281 410.871094 69.253906 409.769531 69.949219 C 408.664062 70.644531 407.59375 71.386719 406.558594 72.179688 C 405.523438 72.972656 404.527344 73.808594 403.566406 74.691406 C 402.605469 75.574219 401.691406 76.5 400.816406 77.46875 C 399.941406 78.433594 399.109375 79.441406 398.328125 80.484375 C 397.542969 81.523438 396.808594 82.601562 396.125 83.710938 C 395.4375 84.820312 394.804688 85.960938 394.226562 87.125 C 393.644531 88.292969 393.117188 89.484375 392.644531 90.699219 C 392.171875 91.917969 391.753906 93.152344 391.394531 94.40625 C 391.035156 95.65625 390.734375 96.925781 390.488281 98.207031 C 390.246094 99.488281 390.058594 100.777344 389.933594 102.074219 C 389.121094 144.742188 389.121094 187.417969 389.933594 230.105469 C 390.019531 231.496094 390.179688 232.878906 390.40625 234.257812 C 390.636719 235.632812 390.933594 236.992188 391.300781 238.335938 C 391.667969 239.683594 392.101562 241.003906 392.601562 242.308594 C 393.101562 243.609375 393.667969 244.882812 394.296875 246.125 C 394.925781 247.367188 395.617188 248.578125 396.371094 249.75 C 397.125 250.925781 397.933594 252.058594 398.800781 253.148438 C 399.671875 254.242188 400.589844 255.285156 401.5625 256.285156 C 402.539062 257.28125 403.558594 258.226562 404.628906 259.121094 C 405.699219 260.015625 406.8125 260.855469 407.964844 261.636719 C 409.121094 262.417969 410.3125 263.136719 411.539062 263.796875 C 412.769531 264.460938 414.027344 265.054688 415.316406 265.589844 C 416.605469 266.121094 417.917969 266.585938 419.253906 266.988281 C 420.589844 267.386719 421.941406 267.71875 423.3125 267.980469 C 424.679688 268.242188 426.058594 268.433594 427.449219 268.558594 C 428.835938 268.679688 430.230469 268.730469 431.625 268.710938 C 433.019531 268.695312 434.40625 268.605469 435.792969 268.445312 Z M 508.75 157.429688 L 594.910156 157.429688 C 594.910156 138.148438 596.109375 119.234375 594.582031 100.535156 C 594.425781 99.367188 594.226562 98.207031 593.976562 97.054688 C 593.726562 95.902344 593.429688 94.765625 593.085938 93.636719 C 592.742188 92.507812 592.351562 91.398438 591.917969 90.304688 C 591.480469 89.207031 591 88.132812 590.476562 87.078125 C 589.953125 86.019531 589.386719 84.988281 588.777344 83.980469 C 588.167969 82.96875 587.519531 81.988281 586.828125 81.03125 C 586.140625 80.074219 585.410156 79.152344 584.644531 78.253906 C 583.878906 77.359375 583.078125 76.496094 582.242188 75.667969 C 581.402344 74.835938 580.535156 74.042969 579.632812 73.285156 C 578.726562 72.527344 577.796875 71.808594 576.835938 71.125 C 575.871094 70.445312 574.882812 69.804688 573.871094 69.207031 C 572.855469 68.605469 571.816406 68.046875 570.757812 67.535156 C 569.695312 67.019531 568.617188 66.550781 567.515625 66.125 C 566.417969 65.699219 565.304688 65.320312 564.171875 64.984375 C 563.042969 64.652344 561.898438 64.367188 560.746094 64.125 C 559.589844 63.886719 558.429688 63.695312 557.257812 63.550781 C 556.089844 63.410156 554.914062 63.3125 553.738281 63.265625 C 552.558594 63.21875 551.382812 63.21875 550.203125 63.269531 C 549.027344 63.320312 547.855469 63.417969 546.683594 63.566406 C 545.515625 63.710938 544.351562 63.90625 543.199219 64.148438 C 542.046875 64.390625 540.90625 64.679688 539.773438 65.015625 C 538.644531 65.351562 537.53125 65.734375 536.433594 66.164062 C 535.335938 66.589844 534.257812 67.0625 533.195312 67.582031 C 532.136719 68.097656 531.101562 68.65625 530.089844 69.261719 C 529.074219 69.863281 528.089844 70.503906 527.128906 71.1875 C 526.167969 71.871094 525.238281 72.59375 524.335938 73.355469 C 523.4375 74.113281 522.566406 74.910156 521.734375 75.742188 C 520.898438 76.574219 520.097656 77.4375 519.335938 78.335938 C 518.570312 79.234375 517.84375 80.160156 517.15625 81.117188 C 516.46875 82.078125 515.824219 83.058594 515.214844 84.070312 C 514.609375 85.082031 514.046875 86.117188 513.523438 87.171875 C 513.003906 88.230469 512.527344 89.304688 512.09375 90.402344 C 504.761719 112.167969 509.550781 134.710938 508.75 157.429688 Z M 578.230469 190.421875 C 552.324219 190.285156 526.414062 190.285156 500.503906 190.421875 C 499.183594 190.339844 497.863281 190.320312 496.539062 190.371094 C 495.21875 190.421875 493.902344 190.539062 492.589844 190.726562 C 491.28125 190.910156 489.984375 191.164062 488.699219 191.480469 C 487.414062 191.800781 486.148438 192.183594 484.902344 192.632812 C 483.660156 193.078125 482.441406 193.589844 481.246094 194.164062 C 480.054688 194.734375 478.894531 195.367188 477.765625 196.058594 C 476.636719 196.75 475.546875 197.5 474.496094 198.300781 C 473.445312 199.105469 472.4375 199.960938 471.472656 200.867188 C 470.507812 201.773438 469.59375 202.726562 468.726562 203.726562 C 467.859375 204.726562 467.046875 205.769531 466.289062 206.851562 C 465.527344 207.9375 464.828125 209.054688 464.183594 210.210938 C 463.539062 211.367188 462.953125 212.554688 462.429688 213.769531 C 461.90625 214.984375 461.445312 216.222656 461.050781 217.484375 C 460.652344 218.746094 460.324219 220.027344 460.058594 221.324219 C 459.792969 222.621094 459.59375 223.925781 459.460938 225.242188 C 459.332031 226.558594 459.265625 227.878906 459.269531 229.203125 C 459.246094 230.550781 459.289062 231.894531 459.398438 233.238281 C 459.511719 234.582031 459.691406 235.917969 459.941406 237.242188 C 460.1875 238.566406 460.503906 239.875 460.886719 241.164062 C 461.273438 242.457031 461.71875 243.726562 462.234375 244.972656 C 462.746094 246.21875 463.324219 247.4375 463.960938 248.621094 C 464.601562 249.808594 465.300781 250.960938 466.054688 252.074219 C 466.8125 253.191406 467.625 254.265625 468.492188 255.296875 C 469.359375 256.328125 470.277344 257.3125 471.246094 258.25 C 472.214844 259.1875 473.226562 260.074219 474.289062 260.90625 C 475.347656 261.738281 476.445312 262.515625 477.585938 263.234375 C 478.726562 263.957031 479.898438 264.617188 481.105469 265.214844 C 482.3125 265.816406 483.546875 266.351562 484.808594 266.824219 C 486.070312 267.296875 487.355469 267.707031 488.660156 268.046875 C 489.960938 268.386719 491.28125 268.660156 492.613281 268.867188 C 493.945312 269.074219 495.285156 269.210938 496.628906 269.277344 C 497.976562 269.347656 499.320312 269.34375 500.667969 269.273438 C 516.003906 269.519531 531.328125 269.273438 546.648438 269.347656 C 560.066406 269.347656 566.527344 273.613281 567.984375 283.160156 C 569.441406 292.710938 564.34375 298.660156 551.5 302.3125 C 550.5625 302.769531 549.671875 303.3125 548.835938 303.941406 C 547.59375 320.75 546.1875 338.1875 544.90625 355.625 C 543.59375 373.480469 539.03125 377.367188 521.007812 377.992188 C 502.433594 377.609375 483.972656 378.859375 465.621094 381.734375 C 463.117188 382.34375 460.640625 383.046875 458.191406 383.851562 C 455.742188 384.65625 453.332031 385.554688 450.953125 386.550781 C 448.578125 387.550781 446.246094 388.640625 443.957031 389.824219 C 441.667969 391.007812 439.429688 392.277344 437.242188 393.640625 C 435.054688 395.003906 432.925781 396.453125 430.855469 397.984375 C 428.78125 399.515625 426.773438 401.128906 424.832031 402.824219 C 422.890625 404.515625 421.019531 406.285156 419.21875 408.125 C 417.414062 409.96875 415.691406 411.878906 414.042969 413.859375 C 412.394531 415.839844 410.828125 417.886719 409.34375 419.992188 C 407.859375 422.097656 406.460938 424.257812 405.148438 426.476562 C 403.835938 428.695312 402.613281 430.960938 401.484375 433.277344 C 400.351562 435.589844 399.316406 437.949219 398.375 440.347656 C 397.429688 442.746094 396.585938 445.175781 395.835938 447.640625 C 395.089844 450.109375 394.441406 452.597656 393.894531 455.117188 C 393.34375 457.636719 392.898438 460.171875 392.550781 462.722656 C 392.207031 465.277344 391.960938 467.839844 391.820312 470.414062 C 391.101562 482.066406 390.40625 493.714844 389.617188 505.367188 C 388.796875 517.488281 382.621094 524.148438 372.539062 523.921875 C 371.9375 523.933594 371.339844 523.910156 370.746094 523.855469 C 370.148438 523.796875 369.558594 523.707031 368.972656 523.582031 C 368.386719 523.457031 367.808594 523.300781 367.242188 523.109375 C 366.671875 522.917969 366.117188 522.695312 365.574219 522.441406 C 365.035156 522.1875 364.507812 521.902344 364 521.585938 C 363.488281 521.273438 363 520.929688 362.527344 520.558594 C 362.058594 520.1875 361.613281 519.789062 361.1875 519.367188 C 360.761719 518.945312 360.363281 518.5 359.988281 518.03125 C 359.617188 517.5625 359.273438 517.074219 358.953125 516.566406 C 358.636719 516.058594 358.351562 515.53125 358.09375 514.992188 C 357.835938 514.449219 357.609375 513.894531 357.417969 513.328125 C 357.226562 512.761719 357.066406 512.1875 356.9375 511.601562 C 356.808594 511.015625 356.71875 510.425781 356.65625 509.828125 C 356.597656 509.234375 356.574219 508.636719 356.582031 508.035156 C 356.59375 507.4375 356.636719 506.839844 356.714844 506.246094 C 356.792969 505.652344 356.902344 505.066406 357.050781 504.484375 C 358.09375 479.730469 361.636719 455.339844 367.6875 431.316406 C 384.855469 379.007812 433.390625 346.75 490.175781 345.347656 C 497.066406 345.171875 503.972656 345.347656 512.421875 345.347656 L 516.054688 303.078125 C 505.84375 303.070312 495.722656 302.105469 485.691406 300.1875 C 479.347656 298.402344 472.875 297.488281 466.28125 297.449219 C 459.6875 297.410156 453.207031 298.242188 446.839844 299.953125 C 417.585938 306.886719 393.308594 295.53125 373.359375 274.054688 C 338.042969 311.140625 289.105469 311.335938 253.636719 274.453125 C 225.183594 301.480469 200.84375 308.09375 160.761719 295.714844 C 160.554688 299.757812 160.207031 303.53125 160.195312 307.304688 C 160.15625 337.160156 160.136719 439.050781 160.085938 483.304688 C 160.085938 483.429688 160.085938 483.53125 160.085938 483.652344 C 160.320312 493.488281 160.136719 503.335938 160.15625 513.183594 C 160.015625 517.199219 160.09375 521.210938 160.394531 525.214844 C 160.691406 529.222656 161.210938 533.203125 161.945312 537.152344 C 162.683594 541.101562 163.632812 545 164.796875 548.84375 C 165.964844 552.691406 167.335938 556.460938 168.914062 560.15625 C 170.492188 563.851562 172.269531 567.449219 174.242188 570.949219 C 176.214844 574.449219 178.375 577.832031 180.722656 581.09375 C 183.066406 584.355469 185.582031 587.480469 188.273438 590.464844 C 190.960938 593.453125 193.804688 596.28125 196.804688 598.957031 C 198.910156 600.742188 200.898438 602.644531 202.78125 604.667969 C 204.660156 606.6875 206.414062 608.8125 208.042969 611.039062 C 209.675781 613.265625 211.167969 615.582031 212.523438 617.984375 C 213.882812 620.386719 215.09375 622.859375 216.160156 625.40625 C 217.226562 627.953125 218.136719 630.550781 218.898438 633.207031 C 219.65625 635.859375 220.257812 638.546875 220.703125 641.269531 C 221.144531 643.996094 221.425781 646.734375 221.546875 649.492188 C 221.667969 652.25 221.625 655.003906 221.421875 657.757812 C 220.230469 709.953125 221.042969 717.039062 221.050781 768.78125 C 221.050781 769.46875 221.050781 772.886719 221.050781 780.84375 L 523.386719 780.84375 C 523.386719 763.953125 523.386719 766.484375 523.386719 771.898438 C 523.386719 768.824219 523.386719 764.925781 523.386719 759.898438 C 523.386719 700.414062 523.550781 686.699219 523.265625 627.265625 C 523.144531 623.988281 523.332031 620.730469 523.828125 617.492188 C 524.328125 614.25 525.128906 611.085938 526.226562 608 C 527.328125 604.910156 528.710938 601.957031 530.375 599.132812 C 532.035156 596.304688 533.949219 593.664062 536.117188 591.203125 C 543.171875 583.121094 549.707031 574.597656 556.628906 566.363281 L 556.886719 566.023438 C 569.472656 550.496094 632.726562 473.140625 645.445312 457.664062 C 647.621094 455.074219 649.550781 452.3125 651.234375 449.378906 C 652.917969 446.445312 654.328125 443.386719 655.464844 440.199219 C 656.601562 437.015625 657.449219 433.753906 658.007812 430.417969 C 658.5625 427.082031 658.820312 423.722656 658.78125 420.339844 C 658.78125 370.339844 659.078125 320.351562 658.699219 270.363281 C 658.738281 269.039062 658.742188 267.714844 658.710938 266.390625 C 658.683594 265.066406 658.621094 263.742188 658.523438 262.421875 C 658.425781 261.101562 658.296875 259.785156 658.132812 258.46875 C 657.96875 257.15625 657.769531 255.84375 657.539062 254.542969 C 657.308594 253.238281 657.042969 251.941406 656.746094 250.648438 C 656.449219 249.359375 656.121094 248.074219 655.757812 246.800781 C 655.394531 245.527344 655 244.265625 654.570312 243.011719 C 654.144531 241.757812 653.683594 240.515625 653.191406 239.285156 C 652.703125 238.054688 652.179688 236.839844 651.625 235.636719 C 651.074219 234.429688 650.488281 233.242188 649.875 232.070312 C 649.261719 230.894531 648.617188 229.738281 647.945312 228.597656 C 647.273438 227.457031 646.570312 226.335938 645.839844 225.230469 C 645.109375 224.125 644.351562 223.039062 643.566406 221.972656 C 642.777344 220.90625 641.964844 219.863281 641.125 218.835938 C 640.285156 217.8125 639.421875 216.8125 638.53125 215.832031 C 637.640625 214.851562 636.726562 213.894531 635.785156 212.960938 C 634.847656 212.027344 633.882812 211.117188 632.898438 210.234375 C 631.910156 209.347656 630.902344 208.488281 629.871094 207.65625 C 628.84375 206.824219 627.792969 206.019531 626.71875 205.238281 C 625.648438 204.460938 624.558594 203.710938 623.449219 202.984375 C 622.339844 202.261719 621.210938 201.570312 620.066406 200.902344 C 618.921875 200.238281 617.761719 199.601562 616.582031 198.996094 C 615.40625 198.386719 614.214844 197.8125 613.003906 197.265625 C 611.796875 196.722656 610.578125 196.207031 609.34375 195.726562 C 608.113281 195.242188 606.867188 194.789062 605.609375 194.371094 C 604.355469 193.953125 603.085938 193.566406 601.8125 193.210938 C 600.535156 192.855469 599.25 192.535156 597.957031 192.246094 C 596.664062 191.957031 595.367188 191.699219 594.058594 191.476562 C 592.753906 191.257812 591.445312 191.066406 590.128906 190.910156 C 588.8125 190.757812 587.496094 190.632812 586.171875 190.546875 C 584.851562 190.457031 583.527344 190.402344 582.203125 190.382812 C 580.878906 190.363281 579.554688 190.375 578.230469 190.421875 Z M 578.230469 190.421875 " fill-opacity="1" fill-rule="nonzero"/></svg>